<svg xmlns:xlink="http://www.w3.org/1999/xlink" xmlns="http://www.w3.org/2000/svg" viewBox="0 0 160 91.01288360882435" preserveAspectRatio="xMidYMid meet" class="css-g5ufxp" id="dhhcffaf" width="499"  height="279" ><defs id="SvgjsDefs2047"></defs><g id="SvgjsG2048" featurekey="S6ay6y-0" transform="matrix(0.7473421741626508,0,0,0.7473421741626508,-17.596919904766217,8.793827265642177)" fill="#ffffff"><path xmlns="http://www.w3.org/2000/svg" fill="#7cffd1" d="M74.182,63.137v-8.361V43.824V32.869v-0.335l-0.287-0.176l-6.451-3.963l-6.457-3.958l-6.452-3.957  l-0.216-0.133l-0.245,0.062l-10.027,2.546l-10.027,2.552l-10.021,2.546l-0.453,0.115v0.467v10.96v10.952v10.952v0.336l0.286,0.176  l6.452,3.965l6.458,3.958l6.45,3.958l0.216,0.133l0.245-0.062l9.784-2.484l6.241,3.825l6.45,3.958l0.217,0.133l0.246-0.062  l10.026-2.551l0.452-0.115v-0.467V65.242v-0.336l-0.287-0.176L74.182,63.137z M44.144,23.858l5.745,3.526l-9.216,2.339l-5.744-3.52  L44.144,23.858z M54.172,21.312l5.738,3.521l-9.21,2.346l-5.745-3.526L54.172,21.312z M66.367,28.791l-9.216,2.345l-5.738-3.521  l9.21-2.346L66.367,28.791z M72.819,32.753l-9.21,2.341l-5.744-3.521l9.215-2.345L72.819,32.753z M34.117,26.41l5.744,3.521  l-9.215,2.345l-5.739-3.525L34.117,26.41z M73.281,62.937l-2.971-1.819v-5.201l2.971-0.755V62.937z M40.574,30.368l5.739,3.521  l-9.211,2.345l-5.744-3.521L40.574,30.368z M37.354,65.295l3.897-3.898l0.401,0.245l-4.298,4.3V65.295z M30.896,55.689l0.402-0.402  l0.4,0.246l-0.803,0.803V55.689z M42.752,61.613l-0.397-0.244l0.85-0.854v0.644L42.752,61.613z M43.205,61.584v0.307l-0.189-0.117  L43.205,61.584z M42.088,61.205l-0.4-0.246l1.517-1.518v0.646L42.088,61.205z M30.297,37.662l-3.319,3.319l-0.401-0.246l3.72-3.719  V37.662z M30.297,38.085v0.646l-2.654,2.656l-0.402-0.247L30.297,38.085z M30.297,39.159v0.644l-1.991,1.991l-0.398-0.244  L30.297,39.159z M30.297,40.229v0.643l-1.329,1.33l-0.398-0.244L30.297,40.229z M30.297,41.297v0.645l-0.665,0.666l-0.4-0.245  L30.297,41.297z M30.297,42.373v0.64l-0.002,0.002l-0.396-0.243L30.297,42.373z M37.354,50.948v-0.641l1.403-1.401l0.396,0.243  L37.354,50.948z M39.418,49.312l0.397,0.244l-2.462,2.461V51.38L39.418,49.312z M40.081,49.719l0.398,0.244l-3.126,3.126v-0.641  L40.081,49.719z M38.489,48.742l-1.135,1.136v-0.646l0.735-0.735L38.489,48.742z M37.354,48.807v-0.645l0.072-0.072l0.399,0.245  L37.354,48.807z M40.746,50.127l0.397,0.244l-3.79,3.792V53.52L40.746,50.127z M41.407,50.532l0.4,0.246l-4.454,4.453V54.59  L41.407,50.532z M33.844,45.894l-2.948,2.948v-0.646l2.547-2.546L33.844,45.894z M34.107,46.056l0.401,0.246l-3.612,3.613v-0.647  L34.107,46.056z M34.771,46.462l0.4,0.246l-4.275,4.274v-0.645L34.771,46.462z M35.435,46.87l0.4,0.245l-4.939,4.938v-0.645  L35.435,46.87z M36.754,46.974l-0.219-0.134l0.219-0.219V46.974z M36.271,46.679l-0.4-0.246l0.882-0.882v0.646L36.271,46.679z   M35.608,46.271l-0.4-0.246l1.546-1.546v0.646L35.608,46.271z M34.944,45.865l-0.401-0.246l2.21-2.21v0.647L34.944,45.865z   M34.28,45.458l-0.4-0.246l2.874-2.875v0.647L34.28,45.458z M33.617,45.051l-0.403-0.247l3.54-3.537v0.645L33.617,45.051z   M32.949,44.642l-0.398-0.245l4.203-4.201v0.645L32.949,44.642z M32.287,44.236l-0.397-0.244l4.865-4.865v0.645L32.287,44.236z   M33.181,45.488l-2.285,2.284V47.12l1.881-1.879L33.181,45.488z M30.896,52.479l5.202-5.202l0.4,0.246l-5.603,5.601V52.479z   M36.754,49.407l-5.282,5.283l-0.4-0.246l5.682-5.682V49.407z M36.754,49.832v0.646l-4.618,4.619l-0.401-0.246L36.754,49.832z   M36.754,50.907v0.641l-3.956,3.956l-0.4-0.246L36.754,50.907z M36.754,51.979v0.64l-3.292,3.292l-0.396-0.242L36.754,51.979z   M36.754,53.049v0.641l-2.629,2.629l-0.398-0.245L36.754,53.049z M37.354,55.658l4.716-4.719l0.4,0.246l-5.116,5.117V55.658z   M41.843,50.096l1.362-1.363v0.646l-0.961,0.963L41.843,50.096z M41.579,49.934l-0.397-0.244l2.023-2.027v0.646L41.579,49.934z   M40.916,49.527l-0.399-0.245l2.688-2.69v0.646L40.916,49.527z M40.252,49.12l-0.397-0.244l3.35-3.354v0.646L40.252,49.12z   M39.589,48.713l-0.397-0.243l4.013-4.02v0.647L39.589,48.713z M38.925,48.306l-0.4-0.245l4.68-4.681v0.646L38.925,48.306z   M38.262,47.898l-0.4-0.245l5.343-5.345v0.647L38.262,47.898z M36.754,38.699l-5.128,5.132l-0.403-0.248l5.531-5.527V38.699z   M31.189,44.267l-0.292,0.291v-0.47L31.189,44.267z M31.453,44.428l0.397,0.244l-0.954,0.954v-0.645L31.453,44.428z M32.114,44.834  l0.399,0.244l-1.617,1.618V46.05L32.114,44.834z M30.297,50.514l-2.141,2.141l-0.401-0.246l2.542-2.542V50.514z M30.297,50.938  v0.645l-1.479,1.479l-0.399-0.244L30.297,50.938z M36.754,47.691v0.646l-5.857,5.857v-0.646L36.754,47.691z M34.388,56.479  l2.366-2.36v0.644l-1.963,1.964L34.388,56.479z M42.736,51.348l0.398,0.244l-5.781,5.783V56.73L42.736,51.348z M43.171,50.911  l0.034-0.034v0.054L43.171,50.911z M42.906,50.748l-0.4-0.245l0.699-0.7v0.646L42.906,50.748z M37.599,47.492l-0.246-0.15v-0.25  l5.851-5.854v0.646L37.599,47.492z M36.754,37.633l-5.794,5.789l-0.063-0.038v-0.541l5.857-5.857V37.633z M30.297,49.441  l-2.806,2.806L27.088,52l3.209-3.206V49.441z M29.082,53.223l1.215-1.215v0.645l-0.815,0.815L29.082,53.223z M30.297,53.078v0.645  l-0.152,0.152l-0.399-0.245L30.297,53.078z M35.054,56.889l1.7-1.699v0.641l-1.302,1.303L35.054,56.889z M36.754,56.258v0.644  l-0.639,0.639l-0.398-0.244L36.754,56.258z M36.754,57.33v0.603l-0.373-0.229L36.754,57.33z M41.024,60.553l2.18-2.182v0.646  l-1.78,1.781L41.024,60.553z M40.762,60.392l-0.401-0.246l2.844-2.845v0.646L40.762,60.392z M40.098,59.984l-0.4-0.246l3.507-3.507  v0.646L40.098,59.984z M39.435,59.577l-0.401-0.245l4.171-4.171v0.646L39.435,59.577z M38.771,59.17l-0.401-0.246l4.834-4.84v0.653  L38.771,59.17z M38.104,58.762l-0.396-0.244l5.497-5.504v0.646L38.104,58.762z M37.445,58.357l-0.092-0.057v-0.5l5.851-5.852v0.641  L37.445,58.357z M43.205,40.814l-5.851,5.853v-0.646l5.535-5.535l0.316,0.194V40.814z M37.354,45.597v-0.646l4.871-4.872  l0.401,0.246L37.354,45.597z M37.354,44.526V43.88l4.207-4.208l0.401,0.246L37.354,44.526z M37.354,43.456v-0.647l3.543-3.544  l0.401,0.246L37.354,43.456z M37.354,42.385v-0.647l2.877-2.881l0.403,0.248L37.354,42.385z M37.354,41.312v-0.644l2.218-2.216  l0.397,0.244L37.354,41.312z M37.354,40.243v-0.646l1.554-1.554l0.401,0.247L37.354,40.243z M37.354,39.173v-0.646l0.888-0.892  l0.403,0.247L37.354,39.173z M37.354,38.099v-0.642l0.227-0.227l0.397,0.244L37.354,38.099z M30.896,42.414v-0.641l5.353-5.358  l0.404,0.248L30.896,42.414z M30.896,41.343v-0.646l4.689-4.69l0.401,0.246L30.896,41.343z M30.896,40.271v-0.643l4.026-4.028  l0.399,0.245L30.896,40.271z M30.896,39.204v-0.645l3.362-3.365l0.401,0.247L30.896,39.204z M30.896,38.132v-0.646l2.699-2.699  l0.4,0.245L30.896,38.132z M30.896,37.062v-0.646l2.035-2.035l0.401,0.246L30.896,37.062z M30.896,35.992v-0.646l1.371-1.372  l0.402,0.246L30.896,35.992z M30.896,34.92v-0.645l0.708-0.708l0.4,0.245L30.896,34.92z M30.896,33.851v-0.646l0.044-0.045  l0.4,0.246L30.896,33.851z M30.297,35.52l-4.646,4.646L25.25,39.92l5.046-5.045V35.52z M30.297,35.945v0.646l-3.982,3.982  l-0.4-0.246L30.297,35.945z M30.297,47.296l-4.133,4.137l-0.4-0.245l4.534-4.537V47.296z M30.297,47.72v0.651l-3.472,3.468  l-0.398-0.245L30.297,47.72z M31.036,55.126l-0.14,0.14V55.04L31.036,55.126z M31.962,55.694l0.4,0.245l-1.466,1.467v-0.646  L31.962,55.694z M32.629,56.104l0.396,0.244l-2.128,2.129v-0.643L32.629,56.104z M30.896,58.9l2.393-2.391l0.399,0.244l-2.792,2.793  V58.9z M33.951,56.916l0.403,0.248l-3.458,3.453v-0.644L33.951,56.916z M30.896,61.041l3.721-3.717l0.398,0.245l-4.119,4.118V61.041  z M37.667,59.197l-0.314,0.314v-0.507L37.667,59.197z M37.934,59.361l0.401,0.245l-0.981,0.981v-0.646L37.934,59.361z   M38.598,59.768l0.4,0.246l-1.645,1.645v-0.646L38.598,59.768z M39.261,60.175l0.401,0.245l-2.308,2.309v-0.646L39.261,60.175z   M39.924,60.582l0.401,0.246L37.354,63.8v-0.647L39.924,60.582z M40.588,60.989l0.4,0.245l-3.635,3.635v-0.646L40.588,60.989z   M30.297,34.45l-5.31,5.309l-0.4-0.245l5.709-5.709V34.45z M30.297,46.226L25.5,51.025l-0.399-0.245l5.196-5.2V46.226z   M26.389,52.275l-1.945,1.948v-0.646l1.546-1.547L26.389,52.275z M26.652,52.437l0.403,0.247l-2.611,2.611v-0.646L26.652,52.437z   M27.318,52.846l0.401,0.245l-3.275,3.274v-0.646L27.318,52.846z M27.982,53.252l0.399,0.245l-3.937,3.938v-0.646L27.982,53.252z   M28.646,53.659l0.399,0.245l-4.601,4.602v-0.646L28.646,53.659z M29.309,54.066l0.4,0.245l-5.265,5.265V58.93L29.309,54.066z   M30.896,62.113l4.384-4.381l0.398,0.244l-4.782,4.781V62.113z M37.354,66.365l4.565-4.561l0.398,0.244l-4.963,4.961V66.365z   M27.624,31.124l0.401,0.247l-3.581,3.581v-0.646L27.624,31.124z M24.444,33.881v-0.648l2.513-2.519l0.404,0.248L24.444,33.881z   M28.288,31.531l0.397,0.244l-4.241,4.245v-0.646L28.288,31.531z M28.947,31.937l0.404,0.248l-4.907,4.907v-0.646L28.947,31.937z   M26.036,30.148l-1.591,1.592v-0.648l1.187-1.192L26.036,30.148z M26.298,30.31l0.397,0.244l-2.25,2.255v-0.645L26.298,30.31z   M29.614,32.346l0.4,0.246l-5.569,5.57v-0.646L29.614,32.346z M30.276,32.753l0.021,0.013v0.615l-5.853,5.853v-0.648L30.276,32.753z   M25.878,41.01l-1.434,1.433v-0.646l1.033-1.032L25.878,41.01z M26.141,41.171l0.401,0.246l-2.098,2.097v-0.647L26.141,41.171z   M26.805,41.578l0.402,0.247l-2.763,2.764v-0.652L26.805,41.578z M27.472,41.987l0.397,0.244l-3.425,3.428v-0.646L27.472,41.987z   M28.133,42.393l0.398,0.244l-4.087,4.093v-0.646L28.133,42.393z M28.796,42.799l0.4,0.245L24.444,47.8v-0.646L28.796,42.799z   M29.462,43.208l0.397,0.243l-5.415,5.419v-0.646L29.462,43.208z M30.125,43.614l0.172,0.105v0.364l-5.853,5.857v-0.646  L30.125,43.614z M24.444,50.365l5.853-5.857v0.647l-5.463,5.461l-0.39-0.239V50.365z M25.728,51.869l-1.283,1.284v-0.646  l0.883-0.885L25.728,51.869z M29.973,54.473l0.324,0.199v0.123l-5.853,5.852V60L29.973,54.473z M30.896,63.188l5.048-5.048  l0.4,0.245l-5.448,5.443V63.188z M36.608,58.547l0.146,0.09v0.41l-5.857,5.857v-0.65L36.608,58.547z M37.354,67.436l5.226-5.225  l0.399,0.244l-5.625,5.631V67.436z M43.804,40.746l9.428-2.395v10.336l-9.428,2.395V40.746z M53.836,49.458l-0.004,0.003v-0.005  L53.836,49.458z M59.432,63.138l-0.4-0.246l0.659-0.655v0.646L59.432,63.138z M58.768,62.73l-0.398-0.244l1.321-1.322v0.648  L58.768,62.73z M58.104,62.324l-0.399-0.245l1.985-1.983v0.645L58.104,62.324z M57.439,61.916l-0.4-0.244l2.651-2.651v0.65  L57.439,61.916z M56.775,61.51l-0.399-0.245l3.314-3.314v0.646L56.775,61.51z M56.112,61.103l-0.399-0.245l3.978-3.977v0.646  L56.112,61.103z M55.45,60.697l-0.401-0.246l4.642-4.645v0.65L55.45,60.697z M54.785,60.289l-0.401-0.246l5.307-5.306v0.646  L54.785,60.289z M54.119,59.881l-0.287-0.176v-0.181l5.858-5.857v0.646L54.119,59.881z M59.69,53.243l-5.858,5.857v-0.646  l5.58-5.578l0.278,0.17V53.243z M53.832,58.031v-0.646l4.916-4.916l0.4,0.246L53.832,58.031z M53.832,56.961v-0.647l4.249-4.253  l0.403,0.248L53.832,56.961z M53.832,55.89v-0.653l3.584-3.583l0.402,0.246L53.832,55.89z M53.832,54.812v-0.646l2.925-2.918  l0.396,0.243L53.832,54.812z M53.832,53.744v-0.647l2.258-2.257l0.404,0.248L53.832,53.744z M53.832,52.673v-0.646l1.594-1.593  l0.4,0.245L53.832,52.673z M53.832,51.603v-0.646l0.934-0.929l0.398,0.244L53.832,51.603z M53.832,50.533v-0.647l0.266-0.266  l0.404,0.247L53.832,50.533z M53.947,60.479l0.4,0.246l-0.516,0.516v-0.646L53.947,60.479z M54.611,60.887l0.402,0.246l-1.182,1.182  v-0.649L54.611,60.887z M55.276,61.295l0.399,0.244l-1.844,1.845v-0.646L55.276,61.295z M55.939,61.701l0.399,0.244l-2.507,2.509  v-0.646L55.939,61.701z M56.604,62.107l0.4,0.245l-3.172,3.173v-0.646L56.604,62.107z M57.269,62.516l0.399,0.244l-3.836,3.835  v-0.646L57.269,62.516z M57.932,62.922l0.398,0.244l-4.498,4.499v-0.646L57.932,62.922z M58.594,63.328l0.4,0.245l-5.162,5.162  v-0.646L58.594,63.328z M59.258,63.734l0.402,0.246l-5.828,5.825v-0.646L59.258,63.734z M60.29,72.341l4.935-4.94l0.405,0.248  l-5.34,5.339V72.341z M60.29,71.916v-0.645l4.276-4.276l0.396,0.243L60.29,71.916z M60.29,70.844V70.2l3.612-3.612l0.401,0.246  L60.29,70.844z M60.29,69.776V69.13l2.946-2.952l0.403,0.248L60.29,69.776z M60.29,68.702V68.06l2.286-2.286l0.397,0.243  L60.29,68.702z M60.29,67.634v-0.645l1.623-1.624l0.401,0.246L60.29,67.634z M60.29,66.562v-0.644l0.958-0.963l0.402,0.247  L60.29,66.562z M60.29,65.489v-0.64l0.298-0.299l0.396,0.244L60.29,65.489z M60.29,64.425v-0.058l0.036,0.022L60.29,64.425z   M53.832,70.229l5.858-5.852v0.646l-5.728,5.721l-0.131-0.08V70.229z M59.69,65.448v0.642l-5.06,5.064l-0.404-0.248L59.69,65.448z   M59.69,66.52v0.643l-4.399,4.396l-0.396-0.244L59.69,66.52z M59.69,67.588v0.645l-3.735,3.732l-0.401-0.246L59.69,67.588z   M59.69,68.658v0.645l-3.069,3.07l-0.403-0.247L59.69,68.658z M59.69,69.73v0.646l-2.404,2.405l-0.401-0.246L59.69,69.73z   M59.69,70.8v0.644l-1.743,1.742l-0.398-0.244L59.69,70.8z M59.69,71.87v0.646l-1.077,1.078l-0.403-0.246L59.69,71.87z   M60.29,73.411l5.603-5.601l0.249,0.152v0.244l-5.852,5.851V73.411z M60.039,52.557l-5.744-3.521l9.216-2.347l5.739,3.527  L60.039,52.557z M63.26,46.135l-9.428,2.4V38.199l9.428-2.397V46.135z M43.553,40.19l-5.738-3.52l9.211-2.345l5.744,3.525  L43.553,40.19z M25.369,29.738l-0.924,0.928v-0.645l0.525-0.528L25.369,29.738z M24.551,40.195l-0.106,0.106V40.13L24.551,40.195z   M24.814,40.357l0.401,0.246l-0.771,0.77v-0.647L24.814,40.357z M24.664,51.217l0.4,0.246l-0.62,0.62v-0.646L24.664,51.217z   M24.444,61.07l5.853-5.852v0.646l-5.613,5.613l-0.24-0.148V61.07z M30.297,56.289v0.646l-4.947,4.951l-0.403-0.247L30.297,56.289z   M30.297,57.36v0.646l-4.287,4.287l-0.397-0.244L30.297,57.36z M30.297,58.434v0.643l-3.625,3.623l-0.399-0.245L30.297,58.434z   M30.297,59.5v0.646l-2.958,2.963l-0.405-0.248L30.297,59.5z M30.297,60.574v0.643l-2.299,2.298l-0.396-0.243L30.297,60.574z   M30.297,61.641v0.646l-1.635,1.635l-0.401-0.246L30.297,61.641z M30.297,62.713v0.645l-0.97,0.974l-0.403-0.247L30.297,62.713z   M30.297,63.787v0.641l-0.309,0.31l-0.397-0.244L30.297,63.787z M30.297,64.853v0.075l-0.046-0.029L30.297,64.853z M36.754,59.473  v0.64l-5.436,5.441l-0.401-0.245L36.754,59.473z M36.754,60.541v0.646l-4.773,4.772l-0.4-0.245L36.754,60.541z M36.754,61.611v0.647  l-4.108,4.108l-0.402-0.246L36.754,61.611z M36.754,62.683v0.646l-3.445,3.445l-0.4-0.245L36.754,62.683z M36.754,63.752v0.647  l-2.781,2.781l-0.402-0.246L36.754,63.752z M36.754,64.824v0.645l-2.118,2.118l-0.4-0.245L36.754,64.824z M36.754,65.895v0.646  L35.3,67.994l-0.401-0.246L36.754,65.895z M36.754,66.965v0.645L35.963,68.4l-0.4-0.245L36.754,66.965z M36.754,68.035v0.65  l-0.123,0.124l-0.405-0.248L36.754,68.035z M43.205,62.654v0.645l-5.851,5.852V68.51L43.205,62.654z M43.205,63.723v0.646  l-5.25,5.252l-0.401-0.246L43.205,63.723z M43.205,64.793v0.648L38.62,70.03l-0.403-0.248L43.205,64.793z M43.205,65.866v0.646  l-3.923,3.924l-0.398-0.244L43.205,65.866z M43.205,66.936v0.647l-3.257,3.262l-0.404-0.248L43.205,66.936z M43.205,68.007v0.646  l-2.593,2.6l-0.401-0.246L43.205,68.007z M43.205,69.077v0.646l-1.934,1.934l-0.396-0.243L43.205,69.077z M43.205,70.146v0.646  l-1.267,1.272l-0.404-0.248L43.205,70.146z M43.205,71.219v0.651l-0.604,0.603l-0.4-0.246L43.205,71.219z M43.205,72.293v0.55  l-0.341-0.209L43.205,72.293z M43.804,51.7l9.428-2.394v10.334l-9.428,2.4V51.7z M58.877,73.756l0.813-0.814v0.646L59.276,74  L58.877,73.756z M59.69,74.011v0.243l-0.151-0.092L59.69,74.011z M60.29,74.481l5.852-5.851v0.646l-5.538,5.537l-0.313-0.192V74.481  z M66.142,69.701v0.646l-4.874,4.874l-0.402-0.247L66.142,69.701z M66.142,70.771v0.646l-4.207,4.213l-0.405-0.248L66.142,70.771z   M66.142,71.842v0.646l-3.548,3.547l-0.396-0.243L66.142,71.842z M66.142,72.912v0.646l-2.884,2.885l-0.401-0.247L66.142,72.912z   M66.142,73.982v0.646l-2.218,2.224l-0.403-0.248L66.142,73.982z M66.142,75.053v0.648l-1.558,1.555l-0.396-0.243L66.142,75.053z   M66.142,76.125v0.646l-0.894,0.893l-0.401-0.246L66.142,76.125z M66.142,77.195v0.646l-0.229,0.23l-0.402-0.247L66.142,77.195z   M60.29,53.111l9.421-2.394v4.966v5.369l-9.421,2.394V53.111z M73.281,54.543l-2.971,0.755v-4.965h-0.299l0.156-0.255l-5.846-3.593  l8.959-2.274V54.543z M53.582,37.645l-5.743-3.524l2.885-0.728l-0.037-0.146l0,0l0.037,0.146l6.329-1.613l5.743,3.521L53.582,37.645  z M55.742,31.495l-0.873,0.223l0.791-0.792l0.404,0.248L55.742,31.495z M56.327,31.334l0.014,0.008l-0.029,0.007L56.327,31.334z   M54.3,31.862l-0.869,0.222l1.566-1.566l0.401,0.246L54.3,31.862z M52.861,32.229l-0.865,0.221l2.34-2.336l0.398,0.244  L52.861,32.229z M51.426,32.595l-0.475,0.121v-0.293l2.719-2.718l0.404,0.248L51.426,32.595z M50.951,31.999v-0.646l2.055-2.057  l0.401,0.247L50.951,31.999z M50.951,30.929v-0.646l1.389-1.395l0.403,0.248L50.951,30.929z M50.951,29.856v-0.645l0.729-0.729  l0.396,0.243L50.951,29.856z M50.951,28.788v-0.647l0.065-0.065l0.401,0.246L50.951,28.788z M50.351,32.868l-3.226,0.814  l-5.739-3.521l8.965-2.276V32.868z M24.707,29.332l-0.262,0.264v-0.425L24.707,29.332z M43.804,62.659l9.428-2.399V70.6  l-9.428,2.394V62.659z M66.49,67.474l-5.738-3.526l9.21-2.34l3.462,2.121l2.282,1.398L66.49,67.474z M73.281,43.59l-9.422,2.392  V35.649l9.422-2.395V43.59z M76.168,75.965l-9.427,2.397V68.028l9.427-2.399V75.965z"></path></g><g id="SvgjsG2049" featurekey="j5pGhi-0" transform="matrix(5.147788000931591,0,0,5.147788000931591,64.70181555729934,-39.43206266561568)" fill="#FFFFFF"><path d="M9.9 12.780000000000001 c0 0.02 0.02 0.04 0.04 0.04 c-0.02 0.02 -0.02 0.08 -0.08 0.06 c0 0.06 0.06 0.04 0.04 0.1 c-0.1 0 -0.1 0.12 -0.08 0.2 l-0.06 0 c0.02 0.02 0 0.08 0.06 0.06 c0 0.04 -0.06 0.02 -0.08 0.02 c-0.04 0.08 0.06 0.04 0.08 0.08 c0 0.08 -0.12 0.02 -0.12 0.1 c0.02 0.02 0.04 0.02 0.08 0.02 c-0.04 0.06 -0.04 0.18 -0.12 0.2 c0.02 0.08 0.06 0.12 0.04 0.24 c-0.04 -0.02 -0.02 -0.1 -0.06 -0.1 c-0.04 0.02 0.02 0.26 -0.08 0.28 c-0.02 0.08 0.06 0.06 0.08 0.1 c-0.16 0.14 -0.02 0.3 -0.18 0.44 c0 0.08 0.04 -0.02 0.08 0.04 c-0.06 0.12 -0.04 0.2 -0.08 0.36 c-0.08 0 -0.02 0.06 -0.12 0.02 c0.18 0.12 -0.02 0.32 -0.02 0.48 c-0.06 -0.06 -0.02 0.06 -0.12 0.02 c0.02 -0.08 0.02 -0.14 0 -0.24 c-0.06 0.06 0 0.1 -0.12 0.1 c0.12 0.08 0.08 0.18 0.2 0.26 c-0.02 0.04 -0.06 0.06 -0.12 0.06 c0 -0.06 0.06 -0.04 0.04 -0.1 c-0.18 0.02 -0.06 0.24 -0.14 0.38 c0.1 -0.02 0.08 -0.1 0.08 -0.18 c0.04 -0.06 0.08 0.02 0.08 -0.08 c0.08 0.06 0 0.16 -0.02 0.22 c0.12 0.1 0.04 0.42 -0.06 0.6 c0.02 0.02 0.02 0.08 0.06 0.1 c-0.14 0.22 -0.02 0.6 -0.24 0.78 c-0.02 0.02 -0.04 0.02 -0.04 0.06 c0.04 0 0.04 -0.02 0.04 -0.06 l0.06 0 c0.08 0.08 -0.06 0.16 0.02 0.3 c-0.12 0.02 -0.06 0.1 -0.02 0.16 c-0.12 -0.02 -0.1 0.08 -0.2 0.08 c0 0.04 0.08 0 0.08 0.06 c0.02 0 0.04 -0.02 0.04 -0.06 c0.04 0.04 0.04 0.3 -0.08 0.38 c0.02 0.02 0.06 0 0.1 0.04 c-0.1 0.06 0.02 0.26 -0.14 0.3 c0.08 0.2 0.1 0.42 -0.04 0.6 c0.06 0.04 0.08 0.12 0.06 0.24 c-0.04 0 -0.06 -0.02 -0.06 -0.04 c-0.02 0.08 0.1 0.14 -0.04 0.12 c0 0.06 0.06 0.06 0.08 0.1 c-0.08 0.06 -0.08 0.18 -0.04 0.3 c-0.06 -0.06 -0.08 -0.02 -0.12 0 c-0.02 0.06 0.04 0.04 0.06 0.06 c0 0.06 0.06 0.06 0.08 0 c0.06 0.04 -0.12 0.18 0.02 0.22 c0 0.06 -0.1 0.04 -0.12 0.08 c0.02 0.06 0.06 0.08 0.1 0.08 c-0.02 0.1 -0.14 0.06 -0.18 0.12 c0.1 0.02 0.1 0.1 0.12 0.18 c-0.04 0.04 -0.04 0.1 -0.04 0.18 c0.04 0 0.02 -0.06 0.08 -0.04 l0 0.14 c-0.04 0 -0.06 -0.02 -0.08 0 l0 0.54 c-0.1 -0.06 -0.1 0.06 -0.2 0.06 c0 0.08 0.16 0.04 0.18 -0.02 c0.08 0.24 0.04 0.38 0.06 0.64 c0 0.06 0.08 0.02 0.1 0.06 c-0.04 0.16 -0.12 0.42 0 0.5 c0 0.2 0.04 0.46 0.1 0.84 c0.04 0.06 0.06 -0.02 0.1 0.04 c0 0.04 -0.04 0.04 -0.08 0.04 c0.08 0.1 0.02 0.34 0.18 0.38 c0.02 0.42 0.26 0.7 0.44 1.06 c-0.12 0 0.02 0.06 0 0.12 c-0.02 -0.04 -0.08 -0.04 -0.06 0.04 c-0.04 -0.02 -0.1 -0.02 -0.12 -0.04 l0 -0.06 c-0.04 0 -0.04 0.06 0 0.06 c-0.08 0.06 -0.08 -0.06 -0.18 0 c-0.04 -0.12 -0.14 -0.18 -0.16 -0.32 c-0.14 0 -0.18 -0.08 -0.26 -0.12 c-0.02 -0.04 0.02 -0.06 0.02 -0.1 c-0.18 -0.46 -0.5 -0.82 -0.6 -1.32 c-0.02 -0.06 0.02 -0.16 0 -0.24 c-0.02 -0.04 -0.06 -0.02 -0.08 -0.06 c-0.12 -0.28 -0.16 -0.88 -0.16 -1.16 c0 -0.34 -0.12 -0.68 -0.12 -1 c0 -0.5 0.08 -1.06 0.04 -1.5 c0 -0.16 0.08 -0.34 0.1 -0.5 c0.02 -0.2 -0.04 -0.42 0 -0.6 c0.02 -0.04 0.06 -0.06 0.08 -0.1 c0 -0.02 -0.06 -0.04 -0.06 -0.04 c0.02 -0.18 0.08 -0.4 0.1 -0.6 c0.02 -0.16 -0.04 -0.32 0.06 -0.44 c0 -0.08 -0.08 -0.04 -0.06 -0.12 c0.22 -0.46 0.08 -1.02 0.32 -1.54 c0 -0.06 -0.04 -0.04 -0.02 -0.12 c0.18 -1.04 0.42 -2.12 0.62 -3.06 c0.3 -1.24 0.6 -2.24 0.82 -3.54 c-0.12 0.02 -0.06 0.2 -0.22 0.18 l0 0.12 c-0.02 0 -0.04 -0.02 -0.06 -0.02 c-0.34 0.44 -0.5 0.92 -0.9 1.28 c-0.02 0.08 0.02 0.06 0.02 0.12 c-0.28 0.1 -0.22 0.54 -0.48 0.66 l0 0.22 c-0.14 0.12 -0.26 0.3 -0.26 0.48 c-0.06 -0.02 -0.02 -0.08 -0.08 -0.08 c0 0.12 -0.04 0.14 -0.14 0.2 c0.12 0.02 0.04 0.1 -0.02 0.14 c0 0.02 0.04 0.02 0.06 0.02 c-0.3 0.52 -0.5 1.06 -0.68 1.56 c-0.06 0 -0.08 0 -0.1 0.02 c-0.04 0.22 -0.1 0.4 -0.22 0.54 c0.04 0.16 -0.08 0.48 -0.2 0.5 l0 0.16 c-0.02 0 -0.02 -0.02 -0.04 -0.02 c-0.06 0.26 -0.12 0.72 -0.36 0.86 c0 0.02 0.04 0.04 0.04 0 c0 0.24 -0.16 0.54 -0.24 0.7 c0.04 0.3 -0.18 0.58 -0.28 0.86 c-0.12 0.34 -0.24 0.7 -0.38 1.06 c-0.22 0.56 -0.4 1.16 -1.04 1.34 c-0.08 0.02 -0.08 -0.04 -0.12 -0.04 c-0.06 0 -0.08 0.04 -0.1 0.06 c-0.28 -0.08 -0.4 -0.34 -0.54 -0.56 c-0.04 0 -0.02 0.06 -0.08 0.04 c-0.26 -0.44 -0.54 -0.96 -0.5 -1.56 c-0.1 -1.04 -0.06 -2 0.12 -3 c0 -0.04 -0.02 -0.08 -0.04 -0.1 c0.22 -0.64 0.18 -1.58 0.42 -2.16 c-0.04 -0.26 0.04 -0.6 0.14 -0.84 c-0.02 -0.54 0.18 -1 0.16 -1.74 c-0.1 0.14 -0.22 0.26 -0.24 0.48 c-0.24 0.14 -0.18 0.58 -0.42 0.72 c-0.22 0.68 -0.64 1.5 -0.84 2.36 c-0.4 1.08 -0.84 2.72 -1.06 3.78 c0 0.02 -0.04 0.02 -0.06 0.02 c-0.26 1.74 -0.74 3.2 -0.86 4.78 c-0.08 0.26 -0.14 0.54 -0.1 0.74 c-0.06 0.06 -0.06 0.16 -0.14 0.16 c0.02 0.18 -0.06 0.24 -0.1 0.32 c-0.18 0 -0.2 -0.02 -0.36 0 c-0.38 -0.2 -0.52 -0.6 -0.46 -1.04 c0.08 -0.56 0.24 -1.3 0.32 -1.8 c0.12 -0.86 0.44 -1.92 0.56 -2.78 c0.2 -0.72 0.44 -1.42 0.58 -2.2 c0.32 -0.86 0.44 -1.74 0.82 -2.5 c0 -0.08 -0.04 -0.08 -0.02 -0.16 c0.16 -0.26 0.1 -0.56 0.34 -0.72 c0.06 -0.52 0.32 -0.92 0.52 -1.48 c0.06 -0.06 0.04 0.04 0.12 0.04 c0 -0.06 -0.04 -0.1 -0.04 -0.16 c0.08 -0.32 0.28 -0.38 0.36 -0.74 c0.02 -0.02 0.08 -0.02 0.12 -0.04 c-0.06 -0.22 0.22 -0.28 0.28 -0.46 c0 -0.04 -0.02 -0.02 -0.04 0 c0.12 -0.46 0.54 -0.62 1 -0.48 l0 0.1 c0.18 0.02 0.2 0.06 0.38 0.02 c0.02 0.14 0.18 0.26 0.08 0.38 c0 0.04 0.02 0 0.06 0 c-0.04 0.1 0 0.2 0 0.32 c0.08 -0.04 0.02 -0.06 0.04 -0.14 c0.04 0 0.04 0.08 0.06 0.14 c-0.02 0 -0.04 0.02 -0.06 0.02 c0.04 0.02 0.04 0.08 0.08 0.12 c0 0.02 -0.02 0.04 -0.04 0.04 c-0.02 -0.02 -0.04 0 0 0 c0.04 0.28 0.06 0.82 -0.16 1 c0 0.04 0.14 -0.02 0.16 0.04 c-0.04 0.08 -0.1 0.12 -0.02 0.2 c-0.22 0.02 -0.12 0.22 -0.2 0.36 c0.14 0 0.02 -0.24 0.14 -0.3 c-0.04 0.12 0.08 0.34 -0.08 0.36 c-0.02 0.1 0.12 0.02 0.08 0.12 c-0.08 -0.02 -0.16 0.12 -0.16 0.24 c-0.04 0 -0.08 0 -0.1 -0.02 l0 0.08 c0.02 0.04 0.04 -0.02 0.08 0 c0 0.1 -0.08 0.02 -0.08 0.06 c0.14 0.1 0.1 -0.16 0.2 -0.18 c-0.06 0.18 0.06 0.32 -0.1 0.5 c0.14 0.1 -0.06 0.2 0.02 0.34 c-0.06 0.06 -0.1 0.12 -0.22 0.08 c-0.02 0.04 -0.04 0.08 -0.06 0.1 c0.1 0 0.14 -0.04 0.24 -0.04 c0 0.24 -0.14 0.38 -0.06 0.64 c-0.06 0.02 -0.22 0.06 -0.26 -0.04 c-0.04 0.1 -0.06 0.22 0 0.3 c0.12 -0.02 0.06 -0.22 0.22 -0.18 c-0.16 0.38 -0.12 0.96 -0.32 1.48 c0 0.04 0.02 0.06 0.06 0.06 c-0.14 0.48 -0.04 0.82 -0.2 1.14 c0.04 0.08 0.04 0.18 -0.04 0.2 c0.02 0.02 0.06 0.04 0.04 0.12 c-0.08 0.02 -0.04 -0.06 -0.1 -0.08 c0.08 0.14 0.1 0.28 0.08 0.58 c-0.12 0.04 0.04 0.28 -0.02 0.44 l-0.14 0 l0 -0.1 c-0.14 0 -0.02 0.12 -0.08 0.22 c0.1 -0.04 0.18 -0.04 0.24 0.02 c-0.08 0.2 0.04 0.4 -0.04 0.6 c0.02 0.04 0.02 0.08 0.08 0.06 c-0.02 0.04 -0.08 0.04 -0.08 0.1 c0 0.04 0.02 0.04 0.02 0.1 c0.04 0 0.04 -0.02 0.1 -0.02 c-0.16 0.18 0 0.42 0 0.62 c0.04 -0.02 0.06 -0.08 0.14 -0.08 c0.28 -0.54 0.58 -1.08 0.74 -1.7 l0.08 0 c-0.02 -0.1 0 -0.18 0.08 -0.18 c-0.04 -0.26 0.18 -0.58 0.3 -0.9 c0.08 -0.24 0.14 -0.42 0.22 -0.6 c0.36 -0.88 0.66 -1.78 1.02 -2.62 c0.06 -0.02 0.08 0.12 0.12 0.04 c0.06 0.14 -0.04 0.34 -0.16 0.38 c-0.02 0.1 0 0.22 -0.08 0.26 c0 0.06 0.08 0.06 0.08 0.12 c0.08 -0.06 0.1 -0.16 0.04 -0.24 c0.06 0 0.06 -0.04 0.1 0 c0.06 -0.22 0.16 -0.32 0.16 -0.5 l0.08 0 c0 -0.12 0.1 -0.34 0.22 -0.42 c-0.02 -0.1 0.04 -0.3 0.18 -0.38 c-0.06 -0.04 -0.04 -0.08 -0.06 -0.14 c0.08 -0.08 0.14 -0.16 0.22 -0.24 c-0.02 -0.04 -0.1 -0.02 -0.08 -0.1 c0.16 -0.1 0.16 -0.38 0.36 -0.46 c-0.1 -0.2 0.34 -0.28 0.12 -0.44 c0.14 -0.08 0.36 -0.3 0.34 -0.52 c0.12 -0.02 0.1 -0.2 0.24 -0.2 c-0.08 -0.22 0.42 -0.48 0.36 -0.68 c0.02 -0.08 0.16 -0.02 0.12 -0.16 c0.02 0 0.04 0.02 0.06 0 c-0.08 -0.1 0.02 -0.08 0 -0.2 c0.18 0 0.16 -0.08 0.18 -0.2 c0.06 0 0.08 -0.04 0.14 -0.06 c0.02 -0.08 -0.04 -0.06 -0.04 -0.1 c0.02 0 0.02 -0.02 0.02 -0.02 c0.04 -0.02 0.06 0.02 0.1 0.02 c-0.04 -0.06 0.14 -0.16 0.04 -0.2 c0.06 -0.02 0.12 -0.06 0.16 -0.08 c0 -0.06 -0.02 -0.06 -0.02 -0.1 c0.14 0.02 0.2 -0.14 0.26 -0.24 c-0.22 -0.06 -0.22 0.34 -0.48 0.34 c0.02 0.06 -0.04 0.08 -0.02 0.16 c-0.04 0 -0.04 -0.02 -0.06 -0.02 c-0.06 0.04 0 0.06 0 0.14 c-0.08 0.02 -0.08 -0.04 -0.12 -0.04 c0.02 0.12 -0.16 0.18 -0.16 0.36 c-0.04 0 -0.04 -0.04 -0.08 -0.04 c0.02 0.1 -0.08 0.2 -0.18 0.22 c0 0.04 0.02 0.06 0.06 0.08 c-0.16 0.02 -0.16 0.18 -0.2 0.3 c-0.16 -0.1 -0.1 0.24 -0.26 0.28 c-0.02 0.06 0.02 0.06 0.02 0.12 c-0.04 0 -0.06 -0.02 -0.08 -0.04 c-0.04 0.12 -0.02 0.16 -0.06 0.24 c-0.1 0 0.04 -0.08 -0.02 -0.06 c-0.12 0.04 -0.06 0.14 -0.04 0.22 c-0.04 -0.02 -0.08 0 -0.06 -0.06 c-0.1 0.04 -0.02 0.1 -0.02 0.2 c-0.12 -0.08 -0.12 0 -0.16 0.1 c-0.06 0 -0.04 0.08 -0.12 0.06 l0 0.18 c-0.08 0 -0.08 0.1 -0.14 0.14 c0.02 0.02 0.04 0.06 0.08 0.06 c-0.16 0.06 -0.22 0.2 -0.24 0.42 c-0.06 0.04 -0.06 -0.02 -0.1 -0.02 c-0.04 0.06 -0.02 0.1 0 0.18 c-0.04 0 -0.06 0 -0.08 -0.02 c0.04 0.22 -0.14 0.28 -0.08 0.38 c-0.12 0.04 -0.1 0.14 -0.22 0.2 c0.1 0.18 -0.06 0.3 -0.1 0.48 c-0.02 -0.02 -0.04 -0.04 -0.04 -0.06 c-0.08 0.08 -0.1 0.14 -0.04 0.22 c-0.1 0 -0.14 0.04 -0.08 0.12 c-0.1 0.02 -0.12 -0.02 -0.1 -0.1 c0.3 -0.62 0.48 -1.16 0.88 -1.7 c0.06 -0.2 0.2 -0.54 0.42 -0.66 c-0.08 -0.18 0.14 -0.22 0.14 -0.4 c0.3 -0.44 0.62 -0.88 0.9 -1.34 c0.3 -0.3 0.54 -0.66 0.88 -0.9 c0.22 0.02 0.36 0 0.54 0.06 c0 0.04 0 0.06 -0.04 0.06 c0.08 0.06 0.2 0.02 0.34 0.08 c-0.04 0.12 0.08 0.1 0.12 0.16 c0.04 0.2 0.22 0.58 0.02 0.72 c0.02 0.02 0.06 -0.02 0.1 0.04 c-0.1 0.14 -0.12 0.24 -0.08 0.4 c-0.06 0.02 -0.08 0.06 -0.14 0.06 c-0.02 0.1 0.14 0 0.12 0.12 c-0.04 0 -0.04 -0.04 -0.08 -0.02 c0.1 0.26 -0.1 0.36 -0.06 0.66 c-0.06 0.08 -0.16 -0.02 -0.2 0.1 c0 0.06 0.08 0 0.12 0.02 c0 0.1 -0.08 0.1 -0.14 0.08 c-0.02 0.02 0 0.04 -0.02 0.04 c0.04 0.06 0.06 0.02 0.12 0.1 c0 0.1 -0.1 0.14 0.02 0.16 c-0.04 0.08 -0.08 0.14 -0.14 0.18 c0.04 0.08 -0.02 0.16 0.02 0.24 c-0.06 0.02 -0.14 0.02 -0.18 0.06 c0.04 0.04 0.14 0.08 0.12 -0.02 c0.1 0.02 0 0.14 -0.08 0.12 c0.02 0.08 0 0.2 0.06 0.24 c-0.02 0.1 -0.08 0 -0.12 0.06 c0.02 0.02 0.06 0.04 0.1 0.04 c-0.2 0.18 0 0.48 -0.24 0.64 c-0.02 0.08 0.06 0.06 0.04 0.12 c-0.02 0 -0.04 0.02 -0.06 0.04 c0.06 0.12 0 0.4 -0.14 0.48 c0.02 0 0 0.08 0.04 0.08 z M9.78 7.82 c-0.02 0 -0.04 0 -0.04 0.02 c0 0 0.04 0 0.04 -0.02 z M9.92 8.14 c0.02 0 0 -0.02 0 0 l0 0 z M9.66 8.38 c0.08 0.02 0.08 -0.04 0.1 -0.08 c-0.06 0 -0.1 0 -0.1 0.08 z M9.62 8.42 c0.04 0.1 0.02 -0.08 0 0 l0 0 z M9.4 8.76 c-0.04 0 0 0.02 0 0 l0.1 0 c-0.02 -0.06 0 -0.06 0.02 -0.1 c-0.08 0 -0.08 0.08 -0.12 0.1 z M3.54 8.76 c-0.06 0.08 0.08 -0.06 0 0 l0 0 z M3.02 9.5 c0.08 -0.04 0.2 -0.14 0.14 -0.26 c0.16 -0.08 0.22 -0.28 0.3 -0.44 c-0.18 0.2 -0.44 0.42 -0.44 0.7 z M10.18 8.86 l0.06 0 l0 -0.06 l-0.06 0 l0 0.06 z M9.44 8.88 c0.02 0.02 0 -0.02 0 0 l0 0 z M8.9 8.98 c0.02 0.08 0.02 -0.1 0 0 l0 0 z M9.18 8.98 c-0.06 0.08 0.08 -0.06 0 0 l0 0 z M10.24 9.04 l0.04 0 l0 -0.04 l-0.04 0 l0 0.04 z M8.24 18.66 l0 0.06 l0.06 0 c0 -0.04 -0.02 -0.06 -0.06 -0.06 c0 -0.08 0.04 -0.1 0.08 -0.16 c-0.04 -0.04 -0.02 -0.14 -0.08 -0.16 c0.14 -0.16 0.1 -0.58 0.12 -0.84 c0.04 -0.06 0.1 0.04 0.12 -0.06 c-0.2 -0.22 0.14 -0.58 0 -0.82 c0.02 -0.08 0.06 -0.14 0.1 -0.2 c-0.02 -0.04 -0.1 -0.02 -0.08 -0.08 c0.06 0 0.1 0 0.12 -0.02 c-0.1 -0.34 0.16 -0.66 0.08 -0.96 l0.08 0 c-0.08 -0.34 0.12 -0.58 0.06 -0.78 c0.16 -0.14 0.1 -0.4 0.14 -0.66 c0.08 -0.24 0.2 -0.54 0.18 -0.8 c0.1 -0.12 0.08 -0.26 0.14 -0.46 c0 -0.02 -0.04 0 -0.04 -0.04 c0.08 -0.1 0.06 -0.28 0.18 -0.38 c-0.06 -0.26 0.24 -0.68 0.1 -0.98 c0.2 0.02 0.06 -0.3 0.22 -0.4 c0 -0.06 -0.06 -0.06 -0.06 -0.14 l0.08 0 c-0.02 -0.14 0.1 -0.24 0.02 -0.38 c0.12 -0.28 0.18 -0.64 0.14 -0.98 c0.08 -0.04 0.14 -0.22 0.06 -0.26 c-0.1 0.36 -0.18 0.74 -0.2 1.12 c-0.1 0.1 -0.1 0.28 -0.16 0.4 c0.08 0.22 -0.24 0.54 -0.1 0.72 c-0.2 0.32 -0.16 0.84 -0.34 1.12 c-0.16 0.94 -0.4 1.92 -0.62 2.88 c-0.02 0.04 0.04 0.02 0.04 0.06 c-0.1 0.28 -0.1 0.58 -0.2 0.86 c0.04 0 0.06 0.02 0.06 0.06 c-0.04 0 -0.02 0.08 -0.1 0.04 c0.04 0.1 -0.06 0.2 0.06 0.24 c-0.06 0 -0.06 0.02 -0.1 0.02 c-0.04 1.02 -0.3 1.92 -0.24 2.84 c-0.02 0.02 -0.04 0.04 -0.08 0.04 c0.06 0.06 0 0.2 0.06 0.24 c0 -0.02 0.04 -0.02 0.06 -0.02 c-0.02 -0.2 0.12 -0.32 0.04 -0.42 c0 -0.04 0.02 -0.06 0.06 -0.06 c-0.04 -0.22 0.04 -0.36 -0.04 -0.54 c0.02 -0.02 0.02 -0.04 0.04 -0.04 z M10.24 9.22 c-0.02 -0.06 0.06 -0.08 0 -0.1 c-0.02 0 -0.06 0.08 0 0.1 z M3.68 9.26 c0.02 0.02 0 -0.02 0 0 l0 0 z M10.26 9.4 c-0.02 -0.1 0.08 -0.16 -0.04 -0.16 c0 0.06 -0.04 0.16 0.04 0.16 z M3.54 9.48 c-0.02 0.02 -0.1 0 -0.08 0.06 l0.08 0 l0 -0.06 c0.04 0 0.02 0.06 0.1 0.04 c-0.06 -0.12 -0.02 -0.12 0.04 -0.22 c-0.1 0 -0.12 0.1 -0.14 0.18 z M8.86 9.48 c-0.02 0 -0.04 0.02 -0.04 0.04 c-0.08 0 0.02 0.1 0 0 c0.04 0.02 0.04 -0.02 0.04 -0.04 c0.02 0 0.04 0.02 0.06 0.02 c-0.08 -0.08 0.08 -0.12 0.02 -0.2 c-0.02 0.06 -0.1 0.08 -0.08 0.18 z M10.22 9.46 c-0.04 0 0 0.02 0 0 c0.02 -0.02 -0.02 -0.04 0 0 z M10.5 9.5 c0.04 0 0.06 -0.02 0.08 -0.04 c-0.04 0 -0.1 -0.02 -0.08 0.04 z M0.54 16.68 c0 0.02 0 0.06 0.02 0.06 c0.02 -0.02 0.02 -0.06 -0.02 -0.06 c0 -0.06 0 -0.1 -0.02 -0.12 c0.12 -0.04 0.1 -0.1 0.16 -0.22 c-0.04 0 -0.06 0 -0.06 -0.02 c-0.04 -0.16 0.1 -0.12 0.12 -0.22 c-0.08 0.02 -0.06 -0.06 -0.08 -0.08 c0.16 -0.12 0.04 -0.48 0.22 -0.48 c-0.04 -0.02 -0.06 -0.04 -0.08 -0.06 c0.02 -0.04 0.02 -0.1 0.08 -0.1 c-0.02 0.1 0.06 0 0 0 c-0.02 -0.04 0.02 -0.04 0.04 -0.04 c-0.06 -0.14 -0.02 -0.32 0.1 -0.34 c-0.08 -0.14 0.06 -0.3 0.04 -0.48 c0.06 -0.04 0.1 0 0.12 -0.08 c-0.04 0 -0.06 0.04 -0.06 0 c0 -0.1 0.06 -0.18 0.14 -0.22 c0.02 -0.1 -0.12 -0.02 -0.1 -0.12 c0 -0.04 0.06 -0.04 0.1 -0.02 c0.06 -0.22 0.02 -0.46 0.24 -0.64 c-0.04 -0.02 -0.1 -0.02 -0.1 -0.08 c0.04 0 0.02 -0.08 0.08 -0.06 c-0.02 0.04 0.02 0.04 0.04 0.04 c0.02 -0.14 0.08 -0.2 0 -0.32 c0.04 0 0.12 0.04 0.1 -0.04 c0.02 -0.08 -0.08 -0.04 -0.08 -0.1 c0.02 -0.02 0.06 -0.02 0.1 -0.02 c0.02 -0.08 -0.04 -0.1 -0.02 -0.16 c0.14 -0.04 0.08 -0.4 0.24 -0.36 c-0.02 -0.26 0.06 -0.42 0.2 -0.56 c0 -0.08 -0.08 -0.04 -0.06 -0.12 c0.2 -0.16 0.16 -0.5 0.34 -0.62 c0.06 -0.38 0.3 -0.64 0.44 -1.08 c0.12 0 0.12 -0.1 0.06 -0.18 c0.12 -0.04 0.28 -0.28 0.08 -0.26 c-0.28 0.52 -0.6 1.18 -0.86 1.78 c-0.22 0.68 -0.56 1.36 -0.7 2.06 c-0.12 0.14 -0.08 0.38 -0.18 0.46 c-0.02 0.06 0.06 0.04 0.06 0.1 c-0.2 0.06 -0.12 0.42 -0.26 0.6 c-0.08 0.54 -0.34 1.08 -0.4 1.6 c0.02 -0.02 0.04 -0.02 0.04 0 c-0.1 0.24 -0.2 0.6 -0.18 0.86 c-0.02 -0.08 0.08 -0.02 0.08 -0.08 c-0.04 0 -0.08 0 -0.08 -0.04 c0.06 -0.04 0.06 -0.12 0.1 -0.18 z M3.46 9.76 c0 -0.02 -0.04 -0.02 -0.04 0 c0.02 0 0.04 0.04 0.04 0 z M4.48 9.78 c0.02 0 0.04 0.02 0.06 0.04 c0.02 -0.08 -0.06 -0.1 -0.06 -0.04 z M2.9 9.82 c0 0 -0.02 -0.02 0 0 l0 0 z M3.38 9.84 l0.04 0 l0 -0.06 l-0.04 0 l0 0.06 z M10.46 9.86 c0 -0.02 0 -0.02 0.02 -0.02 c0 -0.04 -0.02 -0.06 -0.06 -0.06 c0 0.04 0 0.08 0.04 0.08 z M3.34 9.94 c0.02 -0.04 0.04 -0.04 0.06 -0.08 c-0.06 -0.02 -0.12 0.06 -0.06 0.08 z M8.58 9.96 c0 -0.02 0.02 -0.04 0.04 -0.02 l0 -0.06 c-0.02 0 -0.02 -0.02 -0.06 -0.02 c0 0.04 -0.02 0.08 0.02 0.1 z M10.5 9.94 c0.02 0 -0.02 -0.02 0 0 l0 0 z M3.32 10.02 c0 -0.06 0 -0.1 -0.06 -0.08 c-0.02 0.06 0.02 0.06 0.06 0.08 z M3.18 10.1 c0.04 -0.02 0.1 0 0.1 -0.08 c-0.06 0.02 -0.1 0.02 -0.1 0.08 z M4.14 10.1 c0.02 0.02 -0.02 -0.02 0 0 l0 0 z M3.14 10.24 c0.06 0 0.08 -0.04 0.08 -0.1 c-0.06 0 -0.1 0.02 -0.08 0.1 z M10.06 10.22 c0.04 0.1 0.04 -0.1 0 0 l0 0 z M3.16 10.32 c0.02 -0.06 -0.06 -0.06 -0.08 -0.08 c-0.02 0.06 0.06 0.04 0.08 0.08 z M2.42 10.36 c-0.02 -0.02 -0.06 -0.02 -0.06 0 c0.02 0 0.04 0.04 0.06 0 z M3.08 10.36 c0.02 0.1 0.02 -0.1 0 0 l0 0 z M4.04 10.44 l0.1 0 c0 -0.06 -0.02 -0.1 -0.08 -0.1 c0 0.04 -0.02 0.04 -0.02 0.1 z M8.26 10.38 l0.06 0 l0 -0.04 l-0.06 0 l0 0.04 z M8.22 10.48 l0.08 0 c-0.02 -0.02 0 -0.06 -0.04 -0.06 c0 0.02 -0.04 0.04 -0.04 0.06 z M10.02 10.6 c-0.04 -0.08 0.12 -0.16 0 -0.16 c0.02 0.06 -0.08 0.12 0 0.16 z M2.96 10.48 c0.02 0.02 0 0 0 0 l0 0 z M3.02 10.54 c-0.02 -0.02 -0.04 -0.04 -0.06 -0.04 c-0.1 0.12 -0.08 0.28 -0.14 0.4 c0.12 -0.08 0.1 -0.26 0.2 -0.36 c0.02 -0.02 0.04 -0.04 0.06 -0.08 c-0.06 0 -0.08 0.02 -0.06 0.08 z M4.1 10.56 c0 -0.04 0.02 -0.04 0.04 -0.08 c-0.02 0 -0.04 0 -0.02 -0.02 l-0.06 0 c0.02 0.04 0 0.08 0.04 0.1 z M10.3 10.6 c0.02 -0.02 0.06 -0.12 -0.02 -0.1 c0 0.04 0 0.1 0.02 0.1 z M4.14 10.9 c-0.04 -0.16 0.04 -0.22 -0.04 -0.28 c0.02 0.08 -0.06 0.26 0.04 0.28 z M8.08 10.68 c0.04 0 0.06 -0.02 0.06 -0.06 c-0.04 0 -0.08 0 -0.06 0.06 z M2.24 10.7 c0.02 0.1 0.02 -0.1 0 0 l0 0 z M10.28 10.7 c0.02 0.1 0.02 -0.1 0 0 l0 0 z M8.1 10.78 c0 -0.04 0.04 -0.04 0.04 -0.06 c-0.02 0 -0.02 -0.02 -0.06 -0.02 c0 0.02 0 0.06 0.02 0.08 z M4.48 10.78 c0 0 -0.02 -0.02 0 0 l0 0 z M9.94 10.8 c-0.08 0.04 0.08 0.06 0 0 c0.08 0 -0.02 -0.1 0 0 z M8 10.86 c0.04 0.08 0.06 -0.08 0 0 l0 0 z M9.9 10.96 c0 -0.02 0.04 -0.06 0 -0.06 c0 0.02 -0.04 0.04 0 0.06 z M7.94 10.94 c0.02 0.08 0.04 -0.1 0 0 l0 0 z M7.88 11.02 c0.02 0 0 -0.02 0 0 l0 0 z M2.72 11.14 c0.1 0 0.06 -0.1 0.1 -0.12 c-0.1 -0.02 -0.16 0.06 -0.1 0.12 z M3.74 11.28 c0.08 -0.02 0.14 -0.24 0.06 -0.26 c-0.06 0.04 -0.02 0.18 -0.06 0.26 z M4.1 11.04 c0 0.02 -0.02 -0.02 0 0 l0 0 z M9.9 11.22 c0 -0.06 0.02 -0.18 -0.04 -0.18 c-0.02 0.06 -0.08 0.2 0.04 0.18 z M2.44 11.2 c0 0.02 -0.02 0 0 0 l0 0 z M7.3 11.2 c0.06 0.1 0.04 -0.08 0 0 l0 0 z M7.84 11.2 c0 0.02 -0.02 0 0 0 l0 0 z M2.6 11.38 c0.08 0 0.14 -0.14 0.08 -0.18 c-0.02 0.08 -0.1 0.08 -0.08 0.18 z M10.12 11.26 c0 0 0 0.02 0.02 0.02 c0 -0.04 0.04 -0.04 0.04 -0.08 l-0.06 0 l0 0.06 z M9.82 11.4 c0.02 -0.06 0.04 -0.12 -0.04 -0.12 c0 0.06 0 0.12 0.04 0.12 z M7.72 11.4 c-0.08 -0.02 -0.04 0.08 0 0.06 c0 -0.04 0.08 -0.12 0.02 -0.16 c-0.02 0.04 -0.08 0.04 -0.02 0.1 z M3.74 11.42 l-0.04 0 c0.02 0.18 -0.08 0.22 0 0.34 c-0.1 0.26 -0.18 0.66 -0.16 0.96 c-0.1 0.32 -0.22 0.7 -0.14 0.98 c-0.1 0 -0.16 0.24 -0.08 0.28 c-0.02 -0.04 0.04 -0.1 0.06 -0.04 c-0.04 0.04 -0.04 0.08 0 0.12 c-0.04 0.02 -0.08 0.02 -0.1 0 c0.02 0.12 -0.06 0.2 0 0.26 c0.04 0 0.04 -0.02 0.1 -0.02 c0 -0.08 -0.02 -0.12 -0.06 -0.14 c0.18 -0.24 0.18 -0.66 0.24 -1.04 c-0.08 0.02 -0.04 -0.08 -0.06 -0.1 c0.04 -0.02 0.1 0.04 0.12 -0.06 c-0.06 -0.02 -0.1 0.06 -0.1 0 c0.02 -0.04 0.02 -0.06 0.02 -0.12 c0.04 0.02 0.08 0 0.1 -0.02 c0 -0.08 -0.12 -0.12 -0.02 -0.2 c-0.04 0.04 0.02 0.12 0.04 0.04 c-0.06 -0.02 0 -0.1 0 -0.14 l-0.04 0 c0.06 -0.08 0.14 -0.3 0.04 -0.4 c0.08 -0.18 0.16 -0.44 0.08 -0.7 c0.04 0 0.04 -0.06 0.06 -0.1 c-0.08 -0.02 -0.08 0.04 -0.06 0.1 z M4.06 11.32 c-0.02 0.14 0.12 0.02 0 0 l0 0 z M2.56 11.5 c-0.08 0.04 -0.12 0.22 -0.08 0.3 c0.04 -0.12 0.1 -0.22 0.08 -0.3 c0.08 0.02 0.02 -0.08 0.06 -0.1 c-0.06 -0.02 -0.06 0.04 -0.06 0.1 z M9.74 11.62 c0.12 0.02 0.08 -0.22 0.02 -0.16 c0.06 0.04 -0.1 0.1 -0.02 0.16 z M10.04 11.5 c0 0.06 0 0.12 0.08 0.12 c0 -0.06 0.04 -0.08 0.02 -0.16 c-0.04 0 -0.06 0.04 -0.1 0.04 z M7.64 11.66 c0.02 -0.08 0.1 -0.06 0.12 -0.12 c-0.08 0.04 -0.1 -0.1 -0.14 -0.02 c0.04 0.02 -0.02 0.1 0.02 0.14 z M4.02 11.64 c0.02 0.08 0.02 -0.1 0 0 l0 0 z M9.64 12.120000000000001 c0.06 -0.1 0.06 -0.28 0.14 -0.36 c-0.16 0 0.06 -0.12 -0.08 -0.12 c-0.02 0.14 -0.14 0.4 -0.06 0.48 z M7.62 11.74 c-0.04 0 -0.02 -0.06 -0.04 -0.06 c-0.04 0.06 0.02 0.12 0.04 0.06 z M7.46 11.86 c0.04 -0.02 0.04 0.02 0.08 0.02 l0 -0.06 c0 0 0 -0.02 -0.02 -0.02 c0 0.04 -0.06 0.02 -0.06 0.06 z M2.36 11.94 c0.06 0 0.12 -0.04 0.08 -0.08 c-0.06 -0.02 -0.06 0.04 -0.08 0.08 z M4.28 11.98 l0 -0.1 c-0.1 -0.02 -0.1 0.1 0 0.1 z M4.34 11.9 c0 0.02 -0.02 -0.02 0 0 l0 0 z M3.78 11.98 c0.02 0 -0.02 -0.02 0 0 l0 0 z M7.48 12 l0.04 0 c0.04 -0.06 -0.08 -0.08 -0.06 -0.02 c0 0 0.02 0 0.02 0.02 z M2.38 12.02 c0.02 0.02 0 -0.02 0 0 l0 0 z M4.3 12.14 c-0.02 0 -0.02 0 -0.02 0.02 c-0.02 0 -0.02 -0.02 -0.04 -0.02 c-0.02 0.02 -0.04 0.06 -0.02 0.12 c0.06 0.02 0.02 -0.08 0.06 -0.1 c0.02 0 0.02 0 0.02 -0.02 l0.04 0 c-0.04 -0.06 0.06 -0.12 0 -0.14 c-0.04 0.02 -0.04 0.08 -0.04 0.14 z M7.3 12.04 c0.02 0.04 -0.06 0.08 0 0.1 c0 -0.06 0.1 -0.04 0.18 -0.04 c-0.02 -0.16 -0.1 0 -0.18 -0.06 z M2.36 12.059999999999999 l-0.02 0 c-0.02 0.02 -0.06 0.12 0 0.12 c-0.02 -0.06 0.04 -0.04 0.02 -0.12 c0.04 0 0 -0.02 0 0 z M9.92 12.1 l0.06 0 l0 -0.06 l-0.06 0 l0 0.06 z M4 12.14 c0 0.02 -0.02 -0.02 0 0 l0 0 z M9.9 12.18 c0 -0.02 0.04 -0.04 0 -0.06 c0 0.02 -0.04 0.04 0 0.06 z M6.86 12.219999999999999 c0 -0.04 0.04 -0.06 0 -0.08 c-0.02 0.02 -0.06 0.06 0 0.08 z M9.54 12.34 c0 -0.04 0.06 -0.02 0.08 0 c0 -0.06 0 -0.14 -0.04 -0.2 c0.02 0.08 -0.1 0.16 -0.04 0.2 z M7.34 12.26 c0.04 -0.02 0.12 -0.02 0.12 -0.1 c-0.06 0.02 -0.12 0.04 -0.12 0.1 z M2.24 12.24 c0.04 0 0.04 0.02 0.08 0.02 c0 -0.04 -0.02 -0.06 -0.06 -0.08 c0 0.04 -0.02 0.04 -0.02 0.06 z M3.88 12.5 c0.08 -0.02 0.08 -0.16 0.14 -0.22 c-0.06 0.02 -0.02 -0.06 -0.08 -0.06 c-0.04 0.1 -0.06 0.2 -0.06 0.28 z M7.18 12.3 c0.04 0 0.02 0.04 0.06 0.06 c0 -0.04 0.1 -0.1 0.02 -0.12 c0.04 0.08 -0.08 0 -0.08 0.06 z M2.26 12.36 c0 -0.04 0.04 -0.06 0 -0.08 c0 0.04 -0.04 0.06 0 0.08 z M4.26 12.4 c0.02 -0.06 0.16 -0.08 0.04 -0.12 c0 0.04 -0.12 0.08 -0.04 0.12 z M6.78 12.3 c0.02 0.1 0.02 -0.08 0 0 l0 0 z M9.98 12.34 c0 0 -0.02 -0.02 0 0 l0 0 z M4.18 12.36 c0.02 0.02 0 -0.02 0 0 l0 0 z M9.86 12.379999999999999 c0.08 0.08 0.06 -0.08 0 0 l0 0 z M2.2 12.5 c-0.08 0.02 -0.1 0.08 -0.1 0.16 c0.14 0 0.04 -0.08 0.1 -0.16 l0.04 0 c0 -0.04 -0.02 -0.08 -0.04 -0.1 l0 0.1 z M9.56 12.48 l0.06 0 c0 -0.02 0 -0.04 0.02 -0.06 c-0.04 0 -0.04 -0.02 -0.08 -0.02 l0 0.08 z M7.26 12.54 c0.06 -0.14 -0.08 -0.08 0 0 l0 0 z M9.7 12.48 c-0.02 0 0 0.02 0 0 c0.04 -0.02 0 -0.04 0 0 z M9.82 12.48 c0.08 0.06 0.08 -0.1 0 0 l0 0 z M1.9 12.52 l0.06 0 l0 -0.04 l-0.06 0 l0 0.04 z M7.18 12.52 c-0.02 0 -0.04 0 -0.04 0.02 c0.02 0 0.04 0 0.04 -0.02 z M3.86 12.86 c0.04 -0.12 0.04 -0.22 0.08 -0.28 c-0.02 -0.02 -0.04 -0.04 -0.08 -0.04 c0.04 0.16 -0.06 0.22 0 0.32 z M9.42 12.940000000000001 c0.14 -0.06 0.04 -0.24 0.16 -0.32 c-0.08 0.04 0 -0.1 -0.08 -0.08 c-0.02 0.16 -0.1 0.22 -0.08 0.4 z M9.66 12.620000000000001 c-0.08 0.02 0 0.2 0.04 0.1 c-0.04 -0.02 -0.04 -0.04 -0.04 -0.1 l0.02 0 c0 -0.02 0.02 -0.02 0.02 -0.02 l0 -0.06 c-0.04 0 -0.04 0.04 -0.04 0.08 z M9.78 12.719999999999999 c-0.04 -0.12 0.08 -0.06 0.08 -0.14 c-0.04 0 -0.06 -0.02 -0.08 -0.04 c0 0.04 -0.06 0.12 0 0.18 z M4.04 12.58 c-0.02 0 -0.04 0 -0.04 0.02 c0.02 -0.02 0.04 0 0.04 -0.02 z M7.1 12.74 l0 0.02 c0.04 0 0.06 -0.02 0.06 -0.04 c-0.04 -0.02 -0.04 0.02 -0.06 0.02 c-0.04 -0.1 0.08 -0.06 0.06 -0.14 c-0.06 -0.02 -0.08 0 -0.12 0.02 c0 0.06 0 0.12 0.06 0.12 z M4.12 12.74 l0.12 0 l0 -0.04 c-0.02 -0.06 -0.12 0 -0.12 0.04 z M2.06 12.86 c0.06 0 0.08 -0.12 0.04 -0.14 c-0.02 0.04 -0.06 0.06 -0.04 0.14 z M9.54 12.82 c0.02 0 -0.02 -0.02 0 0 l0 0 z M9.7 12.98 l0.12 0 c-0.04 -0.04 -0.06 -0.24 -0.14 -0.16 c0.08 0.04 0.02 0.08 0.02 0.16 z M4.06 12.84 c0 0.06 0 0.12 0.06 0.12 c-0.04 -0.18 0.1 -0.02 0.1 -0.14 c-0.08 -0.02 -0.08 0.04 -0.16 0.02 z M4 12.940000000000001 c0 -0.02 0 -0.04 0.02 -0.04 c0 -0.02 0 -0.04 -0.04 -0.04 c0 0.02 -0.02 0.06 0.02 0.08 z M9.52 12.9 c0.06 0.1 0.02 -0.08 0 0 l0 0 z M2.02 13.059999999999999 c-0.04 -0.1 0.1 -0.12 0.04 -0.16 c-0.02 0.04 -0.1 0.12 -0.04 0.16 z M6.46 13.02 c0.08 0.04 0.06 -0.12 0.04 -0.12 c0 0.06 -0.06 0.06 -0.04 0.12 z M3.86 12.940000000000001 c-0.02 0 -0.06 0 -0.06 0.02 c0.02 -0.02 0.04 0 0.06 -0.02 z M4.14 12.98 l0.04 0 l0 -0.04 l-0.04 0 l0 0.04 z M6.88 13 c0.04 0.02 0.04 0.06 0.1 0.08 c0.04 -0.04 -0.04 -0.08 0.02 -0.12 c-0.04 0 -0.06 -0.02 -0.08 -0.02 c0 0.02 -0.04 0.04 -0.04 0.06 z M9.28 13.66 c0.06 0 0.04 -0.06 0.12 -0.04 c0.08 0.04 -0.1 0.1 0.02 0.1 c0.02 -0.04 0.08 -0.06 0.1 -0.12 c-0.08 -0.02 -0.06 0 -0.14 0 c0 -0.1 -0.06 -0.1 -0.08 -0.22 c0.16 0.02 0.08 -0.26 0.14 -0.38 l-0.06 0 c-0.04 0.28 -0.16 0.4 -0.1 0.66 z M9.46 13.02 c0.02 0.02 0 0 0 0 l0 0 z M4.04 13.059999999999999 l0 0.04 c0.06 0.04 0.08 -0.08 0.02 -0.08 c0 0.02 0 0.04 -0.02 0.04 z M1.94 13.1 c0.04 0.1 0.02 -0.08 0 0 l0 0 z M9.7 13.08 c-0.02 0 -0.04 0 -0.04 0.02 c0.02 0 0.04 0 0.04 -0.02 z M3.92 13.1 c-0.02 0.14 0.1 0 0 0 l0 0 z M3.74 13.18 c0.06 0.02 -0.06 0.1 0.04 0.12 c0 -0.02 0.02 -0.04 0.04 -0.04 c0 -0.04 -0.04 -0.1 0 -0.14 c-0.04 0 -0.08 0 -0.08 0.06 z M6.82 13.24 c0.08 0 0.14 0 0.12 -0.06 c-0.04 0 -0.06 -0.02 -0.08 -0.04 c-0.02 0.04 -0.04 0.06 -0.04 0.1 z M9.64 13.18 l0 0.04 l0.04 0 c0.02 -0.04 0.02 -0.06 -0.02 -0.08 c0 0.02 0 0.04 -0.02 0.04 z M1.76 13.82 c0.04 -0.2 0.26 -0.46 0.18 -0.62 c-0.04 0.24 -0.2 0.38 -0.18 0.62 z M9.64 13.3 c0 0 -0.02 -0.02 0 0 l0 0 z M3.7 13.42 c0 0.08 -0.08 0.14 0 0.2 c0 0.06 -0.1 0.02 -0.08 0.1 c0.02 0.02 0.04 0.04 0.08 0.02 c0.02 -0.12 0.04 -0.26 0.12 -0.32 c0.08 -0.04 0.12 0.06 0.16 0 c-0.06 -0.1 -0.18 -0.02 -0.28 0 z M6.78 13.42 c0.02 0 -0.02 -0.02 0 0 l0 0 z M6.76 13.54 l0.04 0 l0 -0.06 l-0.04 0 l0 0.06 z M9.58 13.5 c-0.02 0.02 -0.04 0 -0.04 0.04 c0.02 -0.02 0.04 0 0.04 -0.04 z M6.62 13.719999999999999 c0.06 0 0.1 -0.16 0.06 -0.18 c-0.02 0.06 -0.06 0.1 -0.06 0.18 z M6.22 13.66 c0.06 -0.16 -0.06 -0.08 0 0 l0 0 z M5.72 15.1 c-0.06 0.1 -0.24 0.22 -0.1 0.32 c0.02 -0.12 0.06 -0.1 0.16 -0.18 c-0.12 -0.14 0.08 -0.36 0.14 -0.36 c0.06 -0.06 -0.06 -0.02 -0.06 -0.06 c0.04 -0.06 0.14 -0.08 0.08 -0.18 c0.2 -0.14 0.26 -0.62 0.44 -0.86 c-0.1 -0.06 0 -0.1 0 -0.2 c-0.04 0 -0.04 -0.04 -0.08 -0.02 c-0.14 0.58 -0.48 0.94 -0.58 1.54 z M3.94 13.6 c0 0.14 0.1 0 0.16 0.08 l0 -0.1 c-0.08 -0.02 -0.1 0.02 -0.16 0.02 z M3.88 13.620000000000001 c-0.02 0.02 -0.06 0 -0.06 0.04 c0.02 -0.02 0.06 0 0.06 -0.04 z M9.06 14.74 l0.02 0 c0.08 -0.36 0.16 -0.72 0.22 -1.06 c-0.02 0.04 -0.04 0 -0.08 0 c-0.04 0.2 -0.16 0.54 -0.14 0.86 c-0.12 0.26 -0.2 0.62 -0.18 0.96 c-0.08 0.08 -0.14 0.2 -0.06 0.32 c0.1 -0.04 0 -0.16 0.12 -0.16 c-0.06 -0.08 -0.04 -0.22 0.08 -0.26 c-0.08 -0.02 -0.04 -0.08 -0.02 -0.14 c-0.06 0 -0.08 -0.02 -0.08 -0.04 c0.08 -0.18 0.06 -0.34 0.12 -0.48 z M6.74 13.719999999999999 c-0.02 -0.02 -0.06 -0.02 -0.06 0 c0.02 0 0.04 0.04 0.06 0 z M3.56 14.42 c-0.02 0 -0.02 0.02 -0.04 0.02 c-0.04 0.06 0 0.08 -0.02 0.14 c0.1 0 0.12 -0.1 0.16 -0.16 c0 -0.06 -0.08 -0.02 -0.08 -0.08 c0.04 -0.14 0.1 -0.26 0.16 -0.4 c-0.06 -0.02 -0.04 0.04 -0.08 0.04 c-0.04 -0.12 0.08 -0.1 0.04 -0.2 c-0.12 0 -0.06 0.24 -0.16 0.32 c0.12 0.04 -0.08 0.24 0.02 0.32 z M6.68 13.82 c0.02 0.02 0 -0.02 0 0 l0 0 z M9.52 13.82 c0.02 0.1 0.02 -0.1 0 0 l0 0 z M9.32 14.04 c0.06 -0.02 0.14 -0.18 0.02 -0.18 c0.02 0.1 -0.02 0.1 -0.02 0.18 z M1.7 13.940000000000001 l0.04 0 l0 -0.04 l-0.04 0 l0 0.04 z M6.64 13.92 c0 0.02 -0.02 -0.02 0 0 l0 0 z M9.52 13.92 c0 -0.02 -0.04 -0.04 -0.06 0 c0.04 0 0.04 0.02 0.06 0 z M6.52 13.98 c0 0.02 -0.02 0 0 0 l0 0 z M1.66 14.059999999999999 l0.06 0 c0 -0.02 0.02 -0.02 0.02 -0.04 c-0.04 -0.02 -0.04 -0.04 -0.08 -0.04 l0 0.08 z M9.44 14.02 c0.06 0.08 0.04 -0.08 0 0 l0 0 z M6.66 14.08 l-0.02 0 c0 0.02 -0.02 0.02 -0.02 0.02 l0 0.06 c0.04 0 0.04 -0.04 0.04 -0.08 c0.04 -0.02 0 -0.02 0 0 z M9.32 14.2 c0.04 -0.02 0.04 -0.14 -0.02 -0.14 c-0.02 0.06 -0.06 0.12 0.02 0.14 z M9.42 14.14 c0.02 0.08 0.02 -0.1 0 0 l0 0 z M1.64 14.280000000000001 c-0.02 -0.06 0.08 -0.12 0 -0.14 c-0.02 0.04 -0.08 0.12 0 0.14 z M6.4 14.2 l0 0.06 c0.06 0.02 0.06 -0.1 0.02 -0.08 c0 0.02 0 0.02 -0.02 0.02 z M3.76 14.3 c0 -0.02 0.04 -0.06 0 -0.08 c0 0.04 -0.04 0.06 0 0.08 z M9.28 14.42 c0.04 -0.06 -0.02 -0.12 0.02 -0.2 c-0.12 -0.02 -0.08 0.2 -0.02 0.2 z M6.38 14.3 c0 0.02 -0.02 -0.02 0 0 l0 0 z M1.54 14.46 c0.06 0 0.14 -0.16 0.06 -0.16 c-0.04 0.04 -0.02 0.14 -0.06 0.16 z M6.32 14.34 c0.02 0.1 0.02 -0.08 0 0 l0 0 z M3.18 14.58 c0.04 0.06 0.06 -0.02 0.08 0.04 c-0.04 0.08 -0.06 0 -0.1 0.04 c0.04 0.14 -0.08 0.3 0.02 0.32 c-0.1 0.46 -0.16 0.74 -0.08 1.24 c0 0.04 -0.08 0 -0.08 0.04 s0.08 0.02 0.08 0.06 c0 0.02 0 0.06 0.04 0.06 c0.06 -0.14 0 -0.26 -0.04 -0.5 c0.06 0.06 0.04 0 0.08 -0.02 c0 -0.14 -0.12 -0.22 -0.04 -0.28 c0.04 0 0 0.1 0.06 0.08 c0.02 -0.12 -0.02 -0.26 0.02 -0.38 c-0.02 0 -0.06 0 -0.06 -0.02 c0.08 -0.06 0 -0.06 0 -0.12 c0.04 0 0.06 0 0.1 -0.02 c0 -0.32 0.06 -0.48 0.04 -0.72 c-0.04 0 -0.06 -0.02 -0.08 -0.02 c-0.02 0.06 -0.02 0.14 -0.04 0.2 z M9.34 14.4 l0 0.04 c0.06 0.04 0.08 -0.08 0.04 -0.06 c-0.02 0 -0.02 0.02 -0.04 0.02 z M3.32 14.42 c0.02 0.02 0 -0.02 0 0 l0 0 z M9.26 14.54 c0 -0.02 0 -0.02 0.02 -0.02 c0 -0.04 -0.02 -0.06 -0.06 -0.06 c0 0.04 0 0.08 0.04 0.08 z M3.82 14.620000000000001 c-0.02 0 0 0.02 0 0 l0.08 0 c0.02 0.04 -0.08 0.08 0 0.08 c0.06 -0.06 0.02 -0.2 -0.08 -0.2 l0 0.12 z M6.3 14.64 c0.06 0 0.06 -0.06 0.08 -0.12 c-0.04 0 -0.04 -0.04 -0.08 -0.02 c0.02 0.06 -0.06 0.08 0 0.14 z M1.12 14.58 l0.04 0 l0 -0.04 l-0.04 0 l0 0.04 z M1.54 14.559999999999999 c-0.02 0 -0.04 0 -0.04 0.02 c0.02 0 0.04 0 0.04 -0.02 z M9.22 14.64 c-0.04 0 0 -0.08 -0.04 -0.08 c-0.04 0.06 0 0.14 0.04 0.08 z M9.32 14.76 c0 -0.08 0.06 -0.1 0 -0.18 c0 0.04 -0.06 0.14 0 0.18 z M3.34 15.940000000000001 c0 -0.06 0.04 -0.18 -0.04 -0.16 c0.06 0.06 -0.06 0.14 0.04 0.16 c0.02 0.02 0.04 0.02 0.04 0.06 c-0.02 0 -0.04 -0.02 -0.08 -0.02 c-0.02 0.12 -0.08 0.46 -0.02 0.58 c-0.1 0.04 -0.08 0.22 0 0.28 c0.02 -0.06 0.02 -0.08 0.06 -0.02 c0.04 -0.16 0 -0.24 -0.02 -0.36 c0.02 0 0.02 0.04 0.06 0.04 c0.06 -0.2 -0.04 -0.58 0.12 -0.68 c-0.14 -0.26 0.06 -0.46 0.02 -0.8 c0.04 -0.1 0.18 -0.06 0.14 -0.16 c-0.02 0.02 -0.04 0.04 -0.08 0.04 c0 -0.02 -0.02 -0.02 -0.02 -0.04 c0.02 -0.1 0.04 -0.22 -0.1 -0.24 c-0.02 0.1 0.02 0.16 -0.06 0.2 c0.04 0.12 -0.02 0.18 0.06 0.24 c-0.14 0.06 -0.14 0.4 -0.04 0.46 c-0.06 0.04 -0.18 0.14 -0.1 0.24 c0 -0.06 0.08 0 0.08 0.02 c-0.04 0.08 0.04 0.14 -0.06 0.16 z M3.64 14.66 c0.06 0.1 0.02 -0.08 0 0 l0 0 z M1.48 14.8 c-0.08 0 0.02 0.1 0 0 c0.04 0 0 -0.08 0.04 -0.1 c-0.06 -0.02 -0.04 0.06 -0.04 0.1 z M6.32 14.82 c0 -0.04 -0.02 -0.06 -0.04 -0.06 c-0.04 0.04 -0.04 0.08 0.04 0.06 z M9.42 14.780000000000001 c0.02 0.1 0.02 -0.1 0 0 l0 0 z M3.8 15.04 c-0.12 0 -0.08 0.12 -0.06 0.2 c-0.08 0 0.02 0.16 0.04 0.06 c-0.04 0 -0.06 -0.02 -0.04 -0.06 l0.04 0 c0.02 -0.04 0.02 -0.1 0.02 -0.2 c0.1 -0.06 0 -0.14 0.08 -0.22 c-0.06 -0.02 -0.08 0.02 -0.14 -0.02 c-0.02 0.12 0.1 0.1 0.06 0.24 z M9.34 14.9 c0.06 0.02 0.12 -0.06 0.06 -0.08 c0 0.04 -0.06 0.02 -0.06 0.08 z M6.2 15 c0.02 -0.04 0.08 -0.1 0 -0.12 c0.04 0.06 -0.06 0.1 0 0.12 z M9.28 14.9 c0 0.02 -0.02 -0.02 0 0 l0 0 z M3.76 14.940000000000001 c0.02 0.1 0.02 -0.08 0 0 l0 0 z M1.4 15.1 c-0.08 -0.04 -0.02 0.1 -0.06 0.12 c0.06 0 0.06 -0.06 0.06 -0.12 l0.02 0 c-0.02 -0.08 0.08 -0.12 0 -0.16 c-0.02 0.04 -0.02 0.1 -0.02 0.16 z M9.2 15.16 c0.14 0 0.04 -0.12 0.12 -0.18 c-0.02 -0.02 -0.02 -0.02 -0.02 -0.04 l-0.04 0 c-0.06 0.1 0 0.14 -0.06 0.22 z M3.62 15.1 c0 0 -0.02 -0.02 0 0 l0 0 z M3.56 15.36 c0.08 0.02 0.08 -0.2 0 -0.18 l0 0.18 z M9.06 15.379999999999999 c0.04 -0.08 0.06 -0.14 -0.02 -0.2 c0.02 0.06 -0.04 0.16 0.02 0.2 z M9.18 15.18 c-0.04 0.02 -0.06 0 -0.08 0.04 c0.04 -0.02 0.08 0 0.08 -0.04 z M6.2 15.24 c0.02 0.02 0 -0.02 0 0 l0 0 z M1.34 15.34 c0 -0.02 0 -0.04 0.02 -0.04 c0 -0.02 -0.02 -0.04 -0.06 -0.04 c0 0.02 0 0.06 0.04 0.08 z M5.9 15.42 c0 0.06 -0.06 0.06 -0.04 0.12 c0.08 0.04 0.1 0.02 0.12 -0.04 c0.04 -0.02 0 -0.04 0 0 c-0.02 -0.02 -0.04 -0.04 -0.04 -0.08 c0.04 -0.04 0.06 0.02 0.14 0 l0 -0.06 c-0.06 0.04 -0.22 -0.1 -0.24 0.06 l0.06 0 z M3.68 15.4 c0 0.18 0.06 -0.08 0 0 l0 0 z M3.76 15.4 c0.02 0.1 0.02 -0.1 0 0 l0 0 z M1.24 15.42 l0 0.06 l0.04 0 c0 -0.02 0 -0.04 0.02 -0.02 l0 -0.06 l-0.04 0 c0 0.02 0 0.04 -0.02 0.02 z M5.56 15.58 c-0.08 0.02 0.02 0.12 0 0 c0.12 -0.02 -0.04 0.08 0.04 0.08 c0.02 -0.04 0.08 -0.08 0.08 -0.16 c-0.06 -0.04 -0.06 0.02 -0.1 -0.04 c0.02 0.06 -0.08 0.06 -0.02 0.12 z M3.64 15.76 c0.12 0 0 -0.14 0.1 -0.22 c-0.12 0.04 -0.08 0.16 -0.1 0.22 z M3.54 15.7 c0.02 0.08 0.02 -0.1 0 0 l0 0 z M5.44 15.82 c0.04 0 0.06 0.04 0.12 0.04 c0.02 -0.04 0.06 -0.06 0.04 -0.14 c-0.06 0.02 -0.04 -0.06 -0.1 -0.06 c-0.02 0.06 -0.04 0.1 -0.06 0.16 z M5.96 15.780000000000001 c-0.12 0.06 0.08 0.06 0 0 l0 0 z M5.8 15.84 c0 0.02 -0.02 -0.02 0 0 l0 0 z M3.68 15.84 c-0.02 0 -0.04 0 -0.04 0.02 c0.02 0 0.04 0 0.04 -0.02 z M8.92 16.36 c0.02 -0.02 0 -0.02 0 0 c-0.06 -0.04 -0.12 0.02 -0.14 -0.02 c0.06 -0.14 0.02 -0.24 0.08 -0.38 c-0.02 -0.04 -0.02 -0.1 -0.06 -0.12 c-0.04 0.32 -0.26 0.8 -0.14 1.18 c0.08 -0.1 0.06 -0.28 0.04 -0.4 c0.02 0.02 0.02 0.06 0.08 0.06 c0.02 -0.12 -0.06 -0.12 -0.06 -0.2 c0.06 0.02 0.02 -0.06 0.08 -0.06 c0.02 0 0.06 0.02 0.1 0.04 c-0.02 -0.06 0 -0.06 0.02 -0.1 z M5.38 16.1 c-0.02 -0.08 0.08 -0.04 0.08 -0.1 c-0.04 0.02 -0.04 -0.02 -0.04 -0.04 c0.06 0 0.1 -0.02 0.08 -0.08 c-0.04 0 -0.04 -0.02 -0.06 -0.02 c-0.08 0.14 -0.12 0.3 -0.18 0.46 c0.06 -0.02 0.1 -0.02 0.12 -0.08 c-0.04 0.02 -0.04 -0.02 -0.04 -0.04 c0.02 0.02 0.04 0 0.08 0 c-0.02 -0.04 0 -0.1 -0.04 -0.1 z M3.52 15.9 c0 0.02 -0.02 0 0 0 l0 0 z M3.78 15.940000000000001 c0.02 0.08 0.02 -0.1 0 0 l0 0 z M5.8 16.02 c0.04 0.02 0.04 -0.02 0.1 -0.02 c0 -0.04 -0.02 -0.08 -0.08 -0.06 c0 0.02 -0.04 0.04 -0.02 0.08 z M6.14 15.940000000000001 c-0.02 0 -0.06 0 -0.06 0.02 c0.02 -0.02 0.04 0 0.06 -0.02 z M0.74 16 c0 0.02 -0.02 0 0 0 l0 0 z M8.96 16.02 c0 -0.02 -0.04 -0.02 -0.04 0 c0.02 0 0.04 0.04 0.04 0 z M3.5 16.2 c-0.02 -0.08 0.1 -0.14 0 -0.18 c-0.04 0.02 -0.06 0.16 0 0.18 z M3.74 16.12 c0 -0.02 0.06 -0.12 -0.04 -0.1 c0.02 0.04 0 0.1 0.04 0.1 z M9.04 16.14 c0 0.08 -0.08 0.16 0.02 0.18 c0.08 -0.06 0.1 -0.18 0.08 -0.3 c-0.04 0.04 -0.02 0.22 -0.1 0.12 z M9.22 16.08 c0 -0.02 -0.04 -0.04 -0.04 0 c0.02 0 0.04 0.02 0.04 0 z M0.88 16.12 c-0.04 0.02 0 0.04 0 0 c0.06 0 -0.02 -0.1 0 0 z M5.8 16.14 c-0.02 -0.06 0.1 0.02 0.06 -0.06 c-0.04 -0.02 -0.14 0.04 -0.06 0.06 z M3.62 16.3 c-0.04 0.02 -0.12 0 -0.12 0.06 c0.1 -0.02 0.06 -0.02 0.12 0.06 l0 -0.12 c0.04 -0.04 0 -0.16 0.04 -0.2 c-0.08 0.02 -0.06 0.14 -0.04 0.2 z M8.94 16.22 c0 -0.04 0.04 -0.04 0.02 -0.1 c-0.08 -0.02 -0.1 0.1 -0.02 0.1 z M9.18 16.2 c0.02 0.02 -0.02 -0.02 0 0 l0 0 z M5.74 16.3 c-0.02 -0.06 0.08 -0.08 0 -0.1 c0 0 -0.06 0.08 0 0.1 z M0.66 16.259999999999998 c0.04 0.08 0.06 -0.08 0 0 l0 0 z M5.68 16.36 c0 0.18 0.06 -0.08 0 0 l0 0 z M3.04 16.38 c-0.06 0.08 0.08 -0.06 0 0 l0 0 z M5.12 16.7 c0.18 0.02 0 -0.14 0.14 -0.14 c-0.06 -0.1 0.02 -0.12 0.06 -0.2 c-0.16 0.04 -0.14 0.22 -0.2 0.34 z M3.04 16.62 l-0.02 0 c0.04 0.12 0 0.24 0.02 0.44 l-0.02 0 c0 0.04 -0.04 0.12 0.04 0.1 c0 -0.04 -0.04 -0.06 -0.02 -0.1 c0.1 -0.06 0.06 -0.32 0 -0.44 c0.04 0 0 -0.1 0.06 -0.08 c0 0.04 0.02 0.06 0.06 0.06 c0 -0.1 0.04 -0.16 -0.06 -0.18 c-0.02 0.02 -0.06 0.04 -0.08 0.06 c-0.02 0.08 0.04 0.08 0.02 0.14 z M3.44 16.44 c0.02 0.08 0.02 -0.1 0 0 l0 0 z M8.96 16.48 c-0.06 0.08 0.08 -0.06 0 0 l0 0 z M3.5 16.5 c0 0.02 -0.02 0 0 0 l0 0 z M8.82 16.740000000000002 c0 -0.04 0.1 -0.22 0 -0.24 c-0.02 0.1 -0.04 0.18 0 0.24 z M3.44 16.56 c0 -0.02 -0.04 -0.04 -0.04 0 c0.02 0 0.04 0.02 0.04 0 z M5.6 16.58 c0.02 0.02 0 -0.02 0 0 l0 0 z M8.98 16.62 c0 0 0 -0.02 0.04 -0.02 c-0.02 -0.02 -0.02 -0.06 -0.06 -0.04 c0 0.02 0 0.06 0.02 0.06 z M3.44 16.6 c-0.08 0.08 0.1 0.08 0 0 l0 0 z M5.58 16.68 c-0.04 0 0 0.02 0 0 c0.08 0 -0.02 -0.1 0 0 z M8.96 16.740000000000002 c0 0 0 -0.02 0.02 -0.02 c0 -0.02 0 -0.06 -0.04 -0.04 c0 0.02 0 0.06 0.02 0.06 z M3.44 16.78 c0.02 0.08 0.02 -0.1 0 0 l0 0 z M5.06 16.92 c0.06 0 0.08 -0.06 0.08 -0.12 c-0.02 0 -0.02 -0.04 -0.06 -0.02 c0.02 0.06 -0.04 0.06 -0.02 0.14 z M8.78 16.86 l0.06 0 c0 -0.04 -0.02 -0.04 -0.06 -0.04 l0 0.04 z M3.4 16.86 c-0.02 0.1 0.06 0.08 0.1 0.04 c-0.04 0 -0.04 -0.06 -0.06 -0.06 c0 0.02 -0.02 0.04 -0.04 0.02 z M3.54 16.92 c0.06 -0.06 0.12 0.02 0.14 -0.06 c-0.06 0.02 -0.04 -0.04 -0.12 -0.02 c0 0.04 0 0.06 -0.02 0.08 z M3.22 16.94 c0.06 0.04 -0.08 0.16 -0.02 0.2 c0.1 -0.02 0.14 -0.06 0.18 -0.12 c-0.04 -0.06 -0.12 -0.08 -0.04 -0.12 c-0.06 -0.02 -0.12 -0.02 -0.12 0.04 z M3.42 16.98 c0.02 0.1 0.02 -0.08 0 0 l0 0 z M3.58 17.08 c0 -0.06 0.08 -0.02 0.08 -0.06 c-0.04 0 -0.04 -0.08 -0.1 -0.06 c0.02 0.04 -0.02 0.12 0.02 0.12 z M8.82 17.02 c-0.04 0 -0.02 -0.06 -0.04 -0.06 c-0.04 0.06 0.02 0.12 0.04 0.06 z M4.98 17.14 c-0.02 -0.02 -0.02 0 -0.02 0.02 l-0.02 0 c-0.02 0.08 -0.04 0.06 0 0.14 c-0.08 0.02 -0.16 0.16 -0.12 0.22 c0.04 -0.08 0.08 -0.14 0.12 -0.22 c0.08 -0.02 0 -0.06 0.02 -0.14 c0.02 0 0.02 -0.02 0.02 -0.02 c0.04 -0.06 0.1 -0.12 0.02 -0.16 c0.02 0.08 -0.04 0.08 -0.02 0.16 z M9.04 17.06 c0 -0.04 0.04 -0.04 0.04 -0.08 c-0.04 -0.02 -0.1 0.06 -0.04 0.08 z M0.32 17.06 c0.04 0.14 -0.08 0.44 -0.04 0.64 c0.1 -0.02 -0.04 -0.32 0.12 -0.2 c0 -0.08 -0.06 -0.08 -0.06 -0.18 c0.04 0 0.06 -0.02 0.08 -0.04 c-0.12 -0.02 0.08 -0.2 -0.02 -0.26 c-0.02 0.02 -0.06 0.02 -0.08 0.04 z M8.68 17.1 c0 0.02 0.02 0.04 0.04 0.06 c0 -0.02 0.06 -0.1 0 -0.1 c0 0.02 -0.02 0.04 -0.04 0.04 l0 -0.02 c-0.06 0 -0.06 -0.04 -0.12 -0.04 c0 0.14 -0.08 0.2 0 0.26 c-0.04 0.14 -0.12 0.36 -0.08 0.58 c0.06 -0.02 0.1 -0.02 0.12 -0.08 c-0.08 -0.02 -0.04 -0.06 0.06 -0.04 c-0.02 -0.08 -0.08 -0.08 -0.1 -0.14 c0.12 0.02 0.04 -0.12 0.02 -0.16 c0.04 0 0.02 -0.06 0.1 -0.04 c0.02 -0.1 -0.08 -0.24 0 -0.32 z M8.9 17.1 c-0.02 0.08 0.04 0.06 0.08 0.08 l0 -0.1 c-0.04 0 -0.06 0 -0.08 0.02 z M3.22 17.32 c0.06 -0.02 0.12 -0.02 0.12 -0.1 c-0.06 0.02 -0.06 -0.02 -0.12 -0.02 c0 0.06 -0.04 0.08 0 0.12 z M3.1 17.32 c0.02 -0.06 -0.04 -0.08 -0.06 -0.1 c-0.02 0.08 0.04 0.08 0.06 0.1 z M3.4 17.28 c0.04 0 0.08 0 0.06 -0.06 l-0.04 0 c0 0.04 -0.02 0.04 -0.02 0.06 z M8.74 17.3 c0 -0.02 0.04 -0.06 0 -0.08 c0 0.04 -0.04 0.06 0 0.08 z M3.06 17.54 c0.02 -0.1 0.06 -0.18 -0.02 -0.22 c0.02 0.12 -0.02 0.16 0.02 0.22 z M3.44 17.34 c0.02 0.1 0.02 -0.08 0 0 l0 0 z M8.86 17.34 c0.02 0.02 0 0 0 0 l0 0 z M3.22 17.38 c0 0.02 0 0.04 -0.02 0.06 c0.08 0.02 0.16 -0.06 0.1 -0.1 c0 0.04 -0.04 0.04 -0.08 0.04 z M8.74 17.34 c-0.06 0.08 0.1 0.08 0 0 l0 0 z M8.82 17.5 c0.08 0 0.1 -0.12 0 -0.1 l0 0.1 z M8.68 17.66 c0.1 0 0.06 -0.12 0.1 -0.2 c-0.1 0.02 -0.06 0.16 -0.1 0.2 z M3.62 17.54 c0.04 0.1 0.02 -0.08 0 0 l0 0 z M8.84 17.740000000000002 c0.02 -0.1 0.04 -0.18 0 -0.22 c-0.02 0.06 -0.08 0.2 0 0.22 z M3.38 17.58 c0.12 0.08 0.04 -0.1 0 0 l0 0 z M3.26 17.58 c0 0.02 -0.02 0 0 0 l0 0 z M3.56 17.58 c0.02 0.02 0 0 0 0 l0 0 z M4.78 17.62 c-0.02 0 -0.04 0 -0.04 0.02 c0.02 -0.02 0.04 0 0.04 -0.02 z M3.04 17.68 l0.04 0 l0 -0.04 l-0.04 0 l0 0.04 z M3.32 17.759999999999998 c-0.02 -0.06 -0.02 -0.12 -0.1 -0.12 c0.02 0.04 0 0.14 0.1 0.12 z M3.56 17.78 c0.12 0.02 0.12 -0.14 0.02 -0.14 c0.02 0.06 -0.04 0.06 -0.02 0.14 z M3.44 17.86 c-0.02 -0.1 0.06 -0.14 -0.02 -0.16 c0 0.08 -0.06 0.12 0.02 0.16 z M8.92 17.78 c0.02 0.1 0.02 -0.1 0 0 l0 0 z M8.78 17.8 c0.02 0.1 0.02 -0.1 0 0 l0 0 z M3.26 18.26 c0.04 0 0.04 -0.02 0.08 -0.02 c0 -0.18 -0.04 -0.24 0.04 -0.38 c-0.06 0 -0.08 -0.02 -0.1 -0.04 c-0.02 0.2 0 0.26 -0.02 0.44 z M3.5 17.86 c0.02 0.08 0.02 -0.1 0 0 l0 0 z M0.2 18.06 c0 -0.06 0.1 -0.12 0 -0.16 c0 0.06 -0.1 0.14 0 0.16 z M8.38 19.18 l-0.08 0 c0 0.24 -0.02 0.26 0 0.44 c-0.04 0 -0.08 0 -0.08 0.04 c0.08 0.04 0.04 0.28 -0.02 0.38 c0.04 0.02 0.1 0.02 0.1 0.12 c-0.02 -0.02 -0.04 -0.04 -0.08 -0.02 c-0.02 0.06 0.06 0.04 0.04 0.12 c-0.1 0.18 -0.08 0.66 -0.04 0.86 c-0.08 0 0.02 0.1 0 0 l0.02 0 c0.14 -0.24 0.02 -0.48 0.1 -0.78 c0.04 0 0.04 -0.06 0.12 -0.04 c-0.02 -0.06 0.04 -0.06 0.02 -0.12 c-0.1 -0.04 -0.02 0.12 -0.12 0.1 c-0.02 -0.04 -0.06 -0.06 -0.06 -0.12 l0.04 0 c0 -0.1 -0.04 -0.34 0.08 -0.44 c-0.04 -0.02 -0.06 -0.02 -0.1 -0.02 c0.06 -0.12 0.04 -0.2 0.12 -0.28 c0 -0.08 -0.08 -0.06 -0.06 -0.16 c0.02 -0.02 0.04 -0.06 0.1 -0.06 c0 0.06 0.04 0.1 -0.02 0.16 c0.02 0.02 0.06 0.02 0.1 0.02 c0.04 -0.1 -0.06 -0.22 -0.14 -0.28 c0.02 -0.14 0.14 -0.4 0.02 -0.56 c0.04 -0.04 -0.02 -0.12 0.02 -0.14 c0.12 0 -0.04 0.1 0.08 0.1 c-0.04 -0.16 0.1 -0.06 0.14 -0.2 c-0.08 -0.02 -0.1 0.04 -0.18 0.04 c-0.04 -0.1 0.06 -0.16 0.1 -0.22 c-0.06 -0.08 -0.04 -0.2 -0.14 -0.22 c0 0.04 0.02 0.12 -0.04 0.1 c0.02 0.4 -0.08 0.64 -0.1 1.1 c0.04 0 0.08 0.02 0.06 0.08 z M3.56 18 l0.1 0 c0 -0.04 0 -0.08 -0.02 -0.08 c0 0.06 -0.12 -0.02 -0.08 0.08 z M8.72 17.98 c-0.04 0 -0.04 -0.04 -0.1 -0.04 c0.02 0.08 -0.02 0.06 -0.02 0.12 c0.06 0 0.08 -0.06 0.12 -0.08 c0.04 0 0.04 0.04 0.08 0.04 l0 -0.1 l-0.06 0 c0 0.02 -0.02 0.02 -0.02 0.06 z M3.62 18.1 c0 0 -0.02 -0.02 0 0 l0 0 z M8.72 18.1 c0 0.06 0.06 0.04 0.08 0.08 c0.02 -0.04 0.06 -0.06 0.06 -0.12 c-0.06 -0.02 -0.06 0.04 -0.14 0.04 z M0.2 18.16 c0 -0.04 -0.02 -0.06 -0.04 -0.06 c0 0.02 0 0.08 0.04 0.06 z M3.5 18.12 c-0.14 0.06 0.08 0.06 0 0 l0 0 z M8.9 18.16 c0 0.02 -0.02 0 0 0 l0 0 z M3.56 18.18 c0 0.02 0 0.06 0.02 0.06 c0.02 -0.06 0.08 0.02 0.1 0.02 l0 -0.04 c0 -0.02 0 -0.04 -0.02 -0.04 c-0.02 0.08 -0.04 -0.02 -0.08 -0.02 c0 0.02 0 0.04 -0.02 0.02 z M8.62 18.24 c0 -0.02 0 -0.04 0.04 -0.02 c-0.02 -0.04 -0.02 -0.06 -0.06 -0.06 c0 0.04 0 0.08 0.02 0.08 z M0.14 18.4 c0.02 -0.02 0 -0.12 0.04 -0.14 c-0.08 -0.02 -0.14 0.12 -0.04 0.14 z M5.06 18.28 c0.02 0.1 0.02 -0.1 0 0 l0 0 z M8.74 18.34 c0.02 0 0 -0.02 0 0 l0 0 z M3.32 18.54 c0 -0.04 0.06 0 0.08 0 c0 -0.04 -0.02 -0.08 -0.06 -0.08 c0.04 0.06 -0.1 0.04 -0.02 0.08 z M0.06 18.58 c0.06 0.02 0.06 -0.12 0 -0.08 l0 0.08 z M8.7 18.54 c0.02 0.02 -0.02 0 0 0 l0 0 z M8.58 18.6 c0.02 0.02 -0.02 -0.02 0 0 l0 0 z M8.84 18.6 c-0.06 0.08 0.08 -0.06 0 0 l0 0 z M3.4 18.62 c-0.02 0 -0.06 0 -0.06 0.02 c0.02 0 0.06 0 0.06 -0.02 z M8.5 19.06 c0.14 -0.08 0.06 -0.22 0.1 -0.4 l-0.06 0 c-0.02 0.16 -0.02 0.3 -0.04 0.4 z M8.7 18.94 c0 -0.1 0.06 -0.2 -0.02 -0.24 c0 0.06 -0.04 0.2 0.02 0.24 z M8.82 18.84 c0.02 0.02 -0.02 -0.02 0 0 l0 0 z M-0.04 18.98 c0.02 0.02 0 -0.02 0 0 l0 0 z M8.6 19.18 c0.04 -0.04 0.06 0.1 0.02 0.14 c0.08 -0.04 0.06 -0.18 0.16 -0.2 c-0.06 -0.02 0.06 -0.16 -0.06 -0.16 c-0.02 0.14 0 -0.02 -0.06 0 c0.02 0.14 -0.08 0.14 -0.06 0.22 z M8.82 19.48 c0 -0.04 -0.02 -0.06 -0.04 -0.06 c-0.02 0.04 0 0.06 0.04 0.06 z M8.54 19.62 c-0.04 -0.06 -0.02 -0.1 0 -0.18 c-0.08 -0.04 -0.08 0.22 0 0.18 z M8.62 19.58 c0.02 0.02 0 -0.02 0 0 l0 0 z M8.72 19.56 c-0.02 0 -0.04 0 -0.04 0.02 c0.02 0 0.04 0 0.04 -0.02 z M8.62 19.74 c-0.02 -0.08 0.1 -0.04 0.08 -0.12 c-0.08 0 -0.18 0.1 -0.08 0.12 z M8.44 19.74 c0.02 0.1 0.02 -0.08 0 0 l0 0 z M8.14 19.8 c-0.08 0 -0.14 0.02 -0.12 0.12 c0.06 -0.02 0.06 0.02 0.1 0.02 l0 0.04 c-0.04 0.02 -0.06 0 -0.1 -0.02 c0.08 0.3 -0.12 0.64 0.06 1.04 c-0.04 -0.02 -0.04 -0.04 -0.08 -0.06 c-0.02 0.16 0.06 0.18 0.1 0.28 c0.04 -0.26 -0.02 -0.4 0.04 -0.58 c-0.16 -0.16 0.08 -0.54 -0.02 -0.7 c0 -0.06 0.1 -0.08 0.02 -0.14 c0.08 0 -0.02 -0.1 0 0 z M8.42 20.04 c0.02 0 0.02 0.02 0.04 0.02 c0 -0.04 0 -0.08 -0.04 -0.08 l0 0.06 z M8.58 20.04 c0.02 0.08 0.02 -0.1 0 0 l0 0 z M8.54 20.5 c0.08 -0.06 0.08 -0.26 0.02 -0.3 c0.02 0.12 -0.02 0.18 -0.02 0.3 z M8.62 20.22 l0 0.06 l0.06 0 c0.02 -0.04 0.02 -0.06 -0.02 -0.08 c-0.02 0.02 -0.02 0.04 -0.04 0.02 z M8.44 20.64 c0 -0.06 0.08 -0.02 0.06 -0.08 c-0.06 0.02 -0.04 -0.04 -0.12 -0.02 c0 0.04 0.02 0.08 0.06 0.1 z M8.54 20.58 c0 0.02 -0.02 0 0 0 l0 0 z M8.54 20.68 c0 -0.02 0.04 -0.06 0 -0.06 c-0.02 0.02 -0.06 0.04 0 0.06 z M8.56 20.8 c0 -0.02 0.04 -0.06 0 -0.06 c0 0.02 -0.04 0.04 0 0.06 z M8.36 20.98 c0.08 0 0.1 -0.18 0.06 -0.22 c-0.04 0.1 -0.04 0.12 -0.06 0.22 z M8.5 20.78 c-0.02 0 -0.04 0 -0.04 0.02 c0.02 0 0.04 0 0.04 -0.02 z M8.62 21.02 c0.06 0.1 0.04 -0.08 0 0 l0 0 z M8.34 21.12 c0.08 -0.02 0 0.14 0.1 0.12 c-0.04 -0.1 0.04 -0.1 0.04 -0.18 c-0.06 0 -0.12 0.02 -0.14 0.06 z M8.5 21.18 l0 0.06 l0.06 0 c0 -0.02 0 -0.04 0.02 -0.02 l0 -0.06 l-0.04 0 c-0.02 0.02 -0.02 0.04 -0.04 0.02 z M8.3 21.26 c-0.02 0.08 -0.06 -0.02 -0.1 0 c0.02 0.2 -0.02 0.26 0 0.46 c0.08 0 0.04 -0.2 0.14 -0.1 c-0.08 -0.14 0.04 -0.22 -0.04 -0.36 c0.06 -0.08 -0.1 -0.04 0 0 z M8.1 21.48 c0.02 -0.08 0.06 -0.22 -0.08 -0.24 c0.02 0.1 0 0.16 0.08 0.24 z M8.62 21.3 c0.02 0.02 0 0 0 0 l0 0 z M8.54 21.4 c0.02 0.1 0.02 -0.1 0 0 l0 0 z M8.36 21.58 c0.06 0.02 0.12 -0.16 0.02 -0.16 c0 0.06 -0.04 0.08 -0.02 0.16 z M8.56 21.54 c0.06 -0.02 -0.02 -0.14 -0.06 -0.06 c0.04 0 0.02 0.06 0.06 0.06 z M8.24 21.9 c0.04 -0.04 0.1 0.02 0.12 -0.06 c-0.02 -0.02 -0.04 -0.04 -0.04 -0.08 c-0.02 -0.04 0.06 -0.08 -0.02 -0.06 c0.02 0.1 -0.1 0.12 -0.06 0.2 z M8.1 21.74 c-0.02 0 -0.04 0 -0.04 0.02 c0 0 0.04 0 0.04 -0.02 z M8.62 21.82 c0 0.04 0.02 0.06 0.06 0.06 c0 -0.04 -0.02 -0.06 -0.06 -0.06 c0.02 -0.02 0.04 -0.04 0.04 -0.08 c-0.08 0 -0.1 0.04 -0.12 0.08 c0.04 0.04 0.02 -0.02 0.08 0 z M8.5 21.96 l0.06 0 l0 -0.06 l-0.06 0 l0 0.06 z M8.22 22.12 c0.02 0.02 0.08 0.02 0.08 0.08 c-0.04 -0.04 -0.06 -0.04 -0.08 0.02 c0.04 0 0.02 0.06 0.1 0.04 c0 -0.06 0.04 -0.1 0.04 -0.16 c-0.12 0.02 0.06 -0.16 -0.06 -0.14 c0.02 0.1 -0.1 0.08 -0.08 0.16 z M8.58 22.08 c0 -0.02 0.06 -0.1 0 -0.1 c0 0.02 -0.06 0.1 0 0.1 z M8.5 22.12 c0.04 0.08 0.06 -0.1 0 0 l0 0 z M8.44 22.2 c0.02 0.08 0.06 -0.1 0 0 l0 0 z M8.34 22.34 c-0.02 0 -0.02 -0.02 -0.02 -0.02 c-0.08 0.08 -0.08 0.32 0.02 0.38 c0 -0.06 -0.06 -0.08 0.04 -0.08 c0 -0.1 -0.02 -0.18 -0.04 -0.28 c0.08 0 -0.02 -0.1 0 0 z M8.5 22.6 c-0.06 -0.04 0.02 -0.24 -0.06 -0.3 c0 0.1 -0.04 0.38 0.06 0.3 z M8.58 22.38 l0.04 0 l0 -0.04 l-0.04 0 l0 0.04 z M8.78 22.38 l0 0 c0 -0.08 -0.04 0.14 0 0 z M8.62 22.54 c-0.12 0.04 0.08 0.06 0 0 l0 0 z M8.72 22.72 c0.02 0.02 0 0 0 0 l0 0 z M8.6 22.78 l0.06 0 l0 -0.06 l-0.06 0 l0 0.06 z M8.38 23.04 c0 -0.1 0.06 -0.22 -0.04 -0.3 c-0.08 0.04 0 0.24 0.04 0.3 z M8.54 22.92 c-0.06 -0.06 0.06 -0.16 -0.06 -0.18 c0 0.08 -0.02 0.18 0.06 0.18 z M8.48 22.98 c0.08 0.06 -0.02 0.24 0.1 0.3 c-0.04 -0.16 0.02 -0.26 -0.08 -0.34 c0 0.02 0 0.04 -0.02 0.04 z M8.62 22.98 c0.04 0.1 0.04 -0.08 0 0 l0 0 z M8.38 23.18 c0.08 0.02 0.1 -0.12 0.06 -0.14 c-0.02 0.04 -0.12 0.06 -0.06 0.14 z M8.68 23.32 l0.04 0 l0 -0.04 l-0.04 0 l0 0.04 z M8.78 23.7 c0.04 0.1 0.02 -0.08 0 0 l0 0 z M8.56 23.88 c0.04 0 0.08 -0.02 0.1 -0.06 c-0.06 0.02 -0.1 0.02 -0.1 0.06 z M8.9 23.92 c-0.08 0.02 0.02 -0.14 -0.08 -0.1 c-0.02 0.08 0.04 0.18 0.08 0.1 z M8.94 23.92 c0.06 0.1 0.04 -0.08 0 0 l0 0 z M9.1 24.58 c0.02 0 0 -0.02 0 0 l0 0 z M9.56 8.06 l0 0 c0.02 0.02 0 -0.02 0 0 z M8.8 9.1 c-0.08 -0.02 0.02 -0.1 0 0 l0 0 z M2.98 9.16 c0 -0.02 0 -0.02 0.04 -0.02 c-0.02 0.02 -0.02 0.02 -0.04 0.02 z M2.96 9.18 c0 0 0 -0.02 0.02 -0.02 c0 0.02 0 0.04 -0.02 0.02 z M2.96 9.18 c0 0.04 -0.04 0.02 0 0 l0 0 z M8.34 9.6 l0 0 c0.02 0.02 -0.02 -0.02 0 0 z M7.78 10.42 c0.1 0 0 0.1 0 0 l0 0 z M9.7 10.58 c0.04 -0.1 0.04 0.1 0 0 l0 0 z M7.66 10.66 c0.1 0 0 0.1 0 0 l0 0 z M2.36 10.84 l0 0 c0.02 0.02 0 0 0 0 z M7.5 11.04 c-0.04 0 -0.06 0.02 -0.08 0.04 c0.04 0 0.06 -0.02 0.08 -0.04 z M6.74 12.52 c0 -0.02 0.04 -0.02 0.04 0 c-0.02 0.04 -0.02 0 -0.04 0 z M3.62 12.52 c0 0.02 -0.02 0.04 -0.04 0 l0.04 0 z M9.9 12.780000000000001 c0 -0.1 0.1 0 0 0 l0 0 z M3.46 13.219999999999999 c0.04 -0.08 0.06 0.1 0 0 l0 0 z M6.3 13.780000000000001 l0 0 c0.02 0 -0.02 -0.02 0 0 z M6.26 13.86 l0 0 c0 0.02 -0.02 0 0 0 z M3.66 13.98 c-0.02 0 -0.02 0.04 -0.02 0.06 c0.02 0 0.02 -0.04 0.02 -0.06 z M6.04 14.42 c-0.02 -0.1 0.06 0 0 0 l0 0 z M3.56 14.42 c0.02 0 0.04 0 0.06 0.02 c-0.02 0 -0.06 0 -0.06 -0.02 z M6.04 14.42 l0 0 c-0.04 0.02 0 0.02 0 0 z M9.06 14.74 c-0.02 0 -0.02 -0.02 0 -0.04 l0 0.04 z M3.54 14.8 c-0.02 0.04 -0.04 0.06 -0.08 0.06 c0 -0.06 0.04 -0.06 0.08 -0.06 z M8.92 15.379999999999999 c0 -0.02 0.02 -0.02 0.04 -0.02 c0 0.02 -0.02 0.02 -0.04 0.02 z M5.9 15.42 l0.02 0 c-0.02 -0.02 -0.02 0 -0.02 0 z M9.16 15.76 l0 0 c0 0.02 -0.02 0 0 0 z M5.38 16.1 c-0.02 0 -0.02 0.02 -0.02 0.04 c0.02 0 0.02 -0.02 0.02 -0.04 z M3.3 16.38 c0 -0.02 0.04 -0.02 0.04 0 c0 0.04 -0.02 0 -0.04 0 z M8.34 16.96 l0 0 c0.02 0.02 -0.02 0 0 0 z M8.6 17.34 c0.08 -0.06 -0.06 0.08 0 0 l0 0 z M8.26 18.02 c0.04 -0.1 0.04 0.1 0 0 l0 0 z M8.5 18.06 l0 0 c0.02 0.02 0 0 0 0 z M8.2 18.16 c0.02 -0.08 0.06 0.1 0 0 l0 0 z M8.68 19.1 c0 -0.02 0.02 -0.02 0.04 -0.02 c0 0.02 -0.02 0.02 -0.04 0.02 z M8.38 19.18 c0.02 0 0.04 0 0.04 0.02 c-0.02 0 -0.04 0 -0.04 -0.02 z M8.32 19.7 c-0.02 0.02 0 0.04 -0.02 0.04 c0 -0.02 0 -0.04 0.02 -0.04 z M8.72 20.08 l0 0 c0.04 -0.02 0 -0.02 0 0 z M8.74 20.76 c0.08 0.02 -0.02 0.12 0 0 l0 0 z M8.74 21.18 c0.04 -0.08 0.04 0.1 0 0 l0 0 z M9.08 24.04 c0 -0.02 0.04 -0.02 0.06 -0.02 c-0.02 0.02 -0.04 0.02 -0.06 0.02 z M12.58 16.68 c0.04 0.1 0.1 0.48 -0.16 0.56 c0.08 0.22 -0.22 0.34 -0.04 0.44 c0.08 -0.06 -0.06 -0.22 0.12 -0.2 c-0.08 0.16 -0.04 0.46 -0.2 0.54 c0.08 0.22 0 0.5 -0.12 0.68 c0.04 0.08 0.04 -0.08 0.1 0 c-0.16 0.26 -0.02 0.6 -0.24 0.74 c0.02 0.06 0.04 -0.08 0.1 0 c-0.02 0.3 -0.12 0.42 -0.04 0.68 l-0.06 0 c-0.04 0.5 -0.02 1.14 -0.1 1.76 c0.06 0.1 0.1 0.24 0.04 0.36 c0 0.08 0.08 0.06 0.08 0.12 c-0.02 0.02 -0.04 0 -0.04 0.04 c0 0.24 0.04 0.62 0.18 0.66 c0.06 0.38 0.3 0.88 0.7 0.92 c0.36 -0.06 0.64 -0.3 0.88 -0.5 c1.48 -1.2 2.38 -3.14 3.2 -5.02 c0.02 -0.24 0.1 -0.54 0.16 -0.8 c0.1 0.06 0.2 0.12 0.28 0.2 c-0.1 0.2 0.12 0.4 0.06 0.58 c0 0.02 0.04 0.02 0.08 0.02 c-0.02 0.12 -0.04 0.2 -0.08 0.3 c0.1 0.02 0.02 -0.14 0.12 -0.12 c0 0.06 0.04 0.08 0.02 0.16 c0.08 0 0.08 -0.06 0.08 -0.12 c0.06 0 0.04 0.08 0.04 0.14 c-0.02 0.02 -0.06 0.02 -0.12 0.02 c-0.52 1.08 -1.02 2.14 -1.7 3.08 c0.06 0.06 -0.02 0.1 0 0.2 c0.12 -0.02 0.18 -0.1 0.24 -0.18 c0 -0.04 -0.02 0 -0.06 0 c0.24 -0.32 0.52 -0.68 0.72 -1.1 c0.14 0.12 -0.14 0.28 -0.06 0.42 c-0.36 0.14 -0.24 0.88 -0.6 0.96 c0 0.14 -0.08 0.18 -0.12 0.3 c-0.04 0.02 -0.1 0.02 -0.14 0.06 c-0.2 0.5 -0.62 0.76 -0.88 1.18 c-0.24 -0.02 -0.24 0.2 -0.44 0.22 c-0.36 0.6 -1.72 0.76 -2.18 0.18 c-0.1 0.06 0.14 0.14 0.06 0.18 c-0.22 -0.18 -0.44 -0.38 -0.72 -0.5 c-0.2 -0.3 -0.34 -0.66 -0.52 -1 c-0.2 -1.08 -0.12 -2.2 -0.04 -3.14 c0.02 -0.34 0.08 -0.88 0.18 -1.1 c0 -0.9 0.34 -1.68 0.46 -2.52 c0.04 -0.08 0.04 -0.22 0.12 -0.26 c0 -0.04 0 -0.06 -0.04 -0.06 c0.1 -0.24 0.22 -0.6 0.24 -0.88 c0.02 0 0.02 -0.06 0.06 -0.04 c0.02 -0.42 0.28 -0.74 0.34 -1.16 c0.04 0 0.04 -0.04 0.08 -0.02 c0 -0.3 0.12 -0.48 0.24 -0.68 l0 -0.14 c0.28 -0.4 0.36 -0.98 0.66 -1.32 c0.02 -0.06 -0.04 -0.06 -0.02 -0.12 c0.24 -0.28 0.32 -0.72 0.62 -0.94 c0 -0.1 0.04 -0.1 0 -0.16 c0.8 -0.92 1.32 -2.2 2.86 -2.3 c0.06 0 0.04 -0.06 0.1 -0.06 c0.5 -0.02 0.76 0.22 1.06 0.42 l0 0.08 c0.4 0.46 0.56 1.64 0.06 2.08 c-0.1 -0.02 -0.12 0.04 -0.24 0.02 c-0.4 -0.48 -0.28 -1.5 -0.74 -1.9 c-1.26 0.66 -1.94 2.08 -2.8 3.22 c0 0.08 -0.02 0.1 -0.04 0.16 c-0.12 -0.02 -0.08 0.1 -0.16 0.12 c0.1 0.3 -0.32 0.56 -0.34 0.82 c-0.06 0.04 -0.08 -0.02 -0.14 0.04 c-0.02 0.08 0.08 0.04 0.1 0.08 c-0.1 0.14 -0.12 0.36 -0.32 0.46 c0 0.08 0.12 0.12 0.06 0.22 c-0.1 -0.02 0 -0.08 -0.06 -0.08 c-0.08 0 -0.06 0.12 -0.1 0.16 c0.02 0.1 0.1 -0.08 0.1 0 c-0.08 0.1 -0.06 0.18 -0.16 0.28 c0.04 0 0.04 -0.04 0.1 -0.04 c-0.2 0.48 -0.34 1.06 -0.58 1.54 c0.04 0.08 0.02 -0.1 0.1 -0.06 c-0.04 0.06 -0.06 0.1 -0.06 0.2 c-0.04 0.02 -0.12 -0.02 -0.12 0.04 c0.18 0.12 -0.04 0.38 -0.06 0.62 c-0.06 0 -0.06 -0.04 -0.12 -0.02 c0.06 0.1 0.1 0.08 0.08 0.24 c-0.06 0.02 -0.04 -0.08 -0.08 -0.08 c-0.06 0 -0.02 0.08 -0.04 0.12 z M14.92 9.84 c0 -0.04 0.08 -0.14 0 -0.12 c0 0.04 -0.08 0.1 0 0.12 z M14.66 10.08 c-0.08 0.02 -0.08 0.08 -0.06 0.14 c-0.02 0.02 -0.08 0.02 -0.12 0.06 c-1.32 1.88 -2.14 4.1 -2.74 6.62 c0.08 0.1 -0.1 0.26 -0.02 0.38 c-0.06 0.08 -0.1 0.2 -0.1 0.36 c0 0.06 -0.08 0.04 -0.06 0.12 c0.02 0.02 0.08 0 0.06 0.08 c-0.04 0 -0.02 0.06 -0.08 0.04 c-0.12 0.68 -0.24 1.4 -0.28 2 c0 0.06 0.08 -0.08 0.08 0.02 c-0.06 0.06 0.04 0.14 -0.04 0.16 c-0.06 -0.02 0.04 -0.08 -0.04 -0.12 c-0.02 0.3 -0.12 0.72 -0.02 0.96 c-0.04 0.04 -0.1 0.2 -0.02 0.22 c-0.02 -0.14 0.06 -0.06 0.1 -0.1 c0 -0.42 0.1 -0.58 0.04 -1.1 c0.02 -0.08 0.06 -0.12 0.1 -0.2 c-0.04 0 -0.06 -0.02 -0.08 -0.04 c0.1 -0.08 0.1 -0.24 0.12 -0.36 c-0.08 -0.04 0 0.1 -0.08 0.08 c0.1 -0.16 0.1 -0.26 0.06 -0.44 c0.02 0 0.02 0.04 0.06 0.04 c0.02 -0.2 -0.02 -0.28 0.04 -0.5 c0.02 0 0.02 0.04 0.04 0.06 c0.02 -0.46 0.18 -0.88 0.18 -1.3 c0.12 -0.14 0.08 -0.32 0.12 -0.46 c0.48 -2.02 1.2 -4.06 2.18 -5.74 c-0.04 0 -0.02 -0.06 -0.02 -0.1 c0.14 0 0.28 -0.3 0.28 -0.44 c0.2 -0.04 0.26 -0.24 0.3 -0.44 c0.06 0 -0.04 -0.1 0 0 z M14.26 11.26 c0.02 -0.02 0.06 -0.1 0 -0.1 c0 0.02 -0.06 0.1 0 0.1 z M13.98 11.8 c0.04 -0.18 0.24 -0.3 0.2 -0.5 c-0.04 0.18 -0.3 0.38 -0.2 0.5 z M13.9 11.9 l0.06 0 l0 -0.04 l-0.06 0 l0 0.04 z M13.879999999999999 12.08 c-0.02 -0.08 0.04 -0.08 0.02 -0.16 l-0.06 0 c0 0.06 -0.02 0.14 0.04 0.16 z M13.72 12.16 c0.04 0.02 0.14 -0.02 0.12 0.06 c0.06 0 0.08 -0.04 0.1 -0.08 c-0.1 0 -0.1 -0.1 -0.2 -0.1 c0.02 0.08 -0.04 0.06 -0.02 0.12 z M13.52 12.86 c-0.04 0.02 0 0.04 0 0 c0.08 -0.02 0.08 -0.14 0.08 -0.26 c0.06 0 0.04 0.04 0.1 0 c0 -0.12 0.1 -0.18 -0.04 -0.24 c0.06 -0.04 0.2 0 0.2 -0.08 c-0.08 -0.02 -0.12 -0.06 -0.22 -0.06 c-0.02 0.12 -0.08 0.18 0.02 0.26 c-0.04 0.04 -0.06 -0.02 -0.14 0.02 c0 0.14 -0.12 0.14 -0.1 0.3 c0.08 -0.02 0.12 -0.02 0.1 0.06 z M14 12.620000000000001 l0.06 0 l0 -0.04 l-0.06 0 l0 0.04 z M13.34 13.04 c0.02 -0.04 0.08 -0.06 0.14 -0.06 c-0.04 -0.04 -0.04 -0.1 -0.1 -0.12 c0.06 0.12 -0.12 0.12 -0.04 0.18 z M13.18 13.34 c-0.06 0 -0.22 0.34 -0.06 0.44 c0.06 -0.14 -0.02 -0.28 0.12 -0.3 c0 -0.06 -0.04 -0.06 -0.02 -0.14 c0.04 0.08 0.12 0.02 0.14 -0.06 c-0.06 -0.04 -0.08 0.08 -0.1 0.02 c-0.08 -0.06 0.14 -0.18 0 -0.22 c0 0.1 -0.1 0.12 -0.08 0.26 z M12.94 13.82 c0.02 0.06 0.04 0.1 0.08 0.12 c-0.02 -0.1 0.1 -0.04 0.08 -0.14 c-0.08 0.04 -0.1 -0.02 -0.16 0.02 z M13 14.16 c-0.02 -0.06 0.04 -0.18 -0.06 -0.16 c0 0.08 -0.1 0.16 0.06 0.16 z M12.82 14.24 c0.02 -0.04 0.06 -0.06 0 -0.08 c0 0.02 -0.04 0.06 0 0.08 z M12.66 14.68 c-0.06 0.1 -0.16 0.26 -0.1 0.4 c0.04 -0.02 0 -0.12 0.08 -0.1 c0 0.04 -0.04 0.04 -0.02 0.1 c0.08 -0.02 0.1 -0.12 0.08 -0.22 c-0.04 -0.02 -0.06 0.04 -0.06 0 c0.02 -0.04 0.02 -0.12 0.02 -0.18 c0.1 0 0 0.02 0.02 0.08 c0.16 -0.06 0.12 -0.28 0.22 -0.34 c0 -0.06 -0.02 -0.1 -0.08 -0.12 c0 0.04 -0.02 0 -0.04 0 c-0.06 0.1 -0.1 0.24 -0.12 0.38 z M13.120000000000001 14.5 c0.02 -0.02 0.06 -0.12 -0.02 -0.1 c0 0.04 -0.02 0.08 0.02 0.1 z M13.02 15.14 c0.04 -0.1 0.2 -0.3 0.1 -0.38 c0 0.14 -0.16 0.26 -0.1 0.38 z M13.02 14.86 c0.02 0.08 0.02 -0.1 0 0 l0 0 z M12.3 15.96 c0.08 -0.26 0.22 -0.6 0.22 -0.86 c-0.08 0.28 -0.22 0.58 -0.22 0.86 z M12.54 15.6 c0.1 -0.02 0 -0.08 0 -0.14 c0.04 -0.12 0.16 -0.16 0.14 -0.34 c-0.04 0 -0.08 0 -0.1 -0.02 c0.06 0.12 -0.2 0.36 -0.04 0.5 z M12.9 15.219999999999999 l0 0.04 c0.06 0.04 0.08 -0.08 0.02 -0.06 c0 0 0 0.02 -0.02 0.02 z M12.66 15.68 c0.02 0.08 0.02 -0.1 0 0 l0 0 z M12.42 15.84 c0.08 0.04 0.06 -0.12 0.02 -0.12 c0.02 0.06 -0.04 0.06 -0.02 0.12 z M12.64 15.940000000000001 c-0.04 -0.08 0.06 -0.14 0 -0.18 c-0.06 0.04 -0.06 0.12 0 0.18 z M12.82 15.96 c0 -0.02 -0.04 -0.04 -0.04 0 c0.02 0 0.04 0.04 0.04 0 z M12.56 16.16 c0.02 -0.06 0.1 -0.16 0.02 -0.2 c0 0.06 -0.1 0.14 -0.02 0.2 z M11.6 19.3 c0.2 -1 0.32 -2 0.66 -2.86 c0 -0.14 0.02 -0.14 0 -0.26 c0.04 -0.06 0.14 -0.04 0.12 -0.14 c-0.08 0 -0.08 -0.04 -0.12 -0.04 c-0.28 1.22 -0.64 2.16 -0.66 3.3 z M12.76 16.16 c-0.02 -0.08 0.02 -0.08 0.02 -0.12 l-0.08 0 c0 0.04 0 0.1 0.06 0.12 z M12.68 16.22 l0.06 0 l0 -0.04 l-0.06 0 l0 0.04 z M12.46 16.42 c0 0.18 0.06 -0.08 0 0 l0 0 z M12.44 16.54 c0.04 0.08 0.04 -0.1 0 0 l0 0 z M12.22 16.68 c0 -0.06 0.1 -0.02 0.08 -0.1 c-0.04 0 -0.06 0 -0.08 -0.02 c0.02 0.04 -0.06 0.1 0 0.12 z M12.3 16.94 c-0.02 0 -0.06 -0.04 -0.08 0 c0.08 0.04 -0.14 0.32 0.04 0.38 c0.02 -0.24 0.18 -0.42 0.12 -0.64 c-0.06 0.1 -0.06 0.18 -0.08 0.26 z M12.46 17.12 c0.08 -0.04 0.12 -0.22 0.08 -0.3 c-0.04 0.08 -0.04 0.2 -0.08 0.3 z M12.16 17.56 c0.06 0.02 0.12 -0.2 0.02 -0.2 c-0.04 0.04 0.02 0.14 -0.02 0.2 z M12.04 17.44 c0.02 0.1 0.02 -0.08 0 0 l0 0 z M12.02 17.62 c0.02 0 0.04 0 0.06 0.02 c0 -0.06 -0.04 -0.08 0 -0.12 c-0.06 0 -0.08 0.04 -0.06 0.1 z M12.1 17.86 c-0.16 0 -0.08 0.26 -0.18 0.3 c0.02 0 0.06 0 0.06 0.04 c-0.02 0.04 -0.14 0.22 0 0.24 c0.04 -0.22 0.06 -0.3 0.08 -0.54 c0.08 0.06 0.14 -0.2 0.1 -0.26 c-0.04 0.06 -0.06 0.12 -0.06 0.22 z M12.06 17.740000000000002 c0.02 0 -0.02 -0.02 0 0 l0 0 z M11.82 19.22 c-0.02 0.1 -0.14 0.24 0 0.3 c0 -0.4 0.14 -0.64 0.1 -1.02 c-0.04 0.26 -0.1 0.5 -0.1 0.72 z M11.58 18.62 c0.02 0.02 -0.02 0 0 0 l0 0 z M12.16 18.76 c0.02 0.1 0.02 -0.08 0 0 l0 0 z M12.14 18.88 c0 0.02 -0.02 0 0 0 l0 0 z M17.2 18.94 c0.02 0 -0.02 -0.02 0 0 l0 0 z M17.44 19.06 c0.02 0 -0.02 -0.02 0 0 l0 0 z M12.06 19.28 l0.04 0 l0 -0.06 l-0.04 0 l0 0.06 z M12.06 19.32 c0.02 0.1 0.02 -0.1 0 0 l0 0 z M11.48 19.78 c0.06 -0.08 0.1 -0.32 0.08 -0.42 c-0.04 0.14 -0.08 0.26 -0.08 0.42 z M17.2 19.4 c-0.14 0 -0.04 0.32 -0.2 0.24 c0 0.08 -0.04 0.1 0 0.18 c0.14 -0.04 0.18 -0.2 0.14 -0.34 c0.04 0.02 0.04 0.04 0.08 0.06 c0.02 -0.08 -0.02 -0.1 -0.02 -0.14 c0.04 -0.02 0 -0.04 0 0 z M12.04 19.54 c-0.02 0.14 0 -0.1 0 0 l0 0 z M11.74 19.78 c-0.06 0.08 0.08 -0.06 0 0 l0 0 z M11.98 19.9 l0.06 0 l0 -0.06 l-0.06 0 l0 0.06 z M16.96 20.02 c0.02 -0.02 0.1 -0.16 0 -0.14 c0.02 0.06 -0.06 0.12 0 0.14 z M11.74 19.9 c-0.02 0 -0.04 0 -0.04 0.02 c0.02 0 0.04 0 0.04 -0.02 z M11.96 20.06 c-0.02 0.14 0.02 -0.1 0 0 l0 0 z M11.7 20.12 c-0.02 0.14 0.02 -0.1 0 0 l0 0 z M11.46 20.16 c0.02 0.02 -0.02 -0.02 0 0 l0 0 z M16.64 20.52 c0.12 -0.02 0.24 -0.26 0.12 -0.36 c-0.06 0.14 -0.08 0.2 -0.12 0.36 z M11.94 20.2 c0.02 0.1 0.02 -0.08 0 0 l0 0 z M11.44 20.26 c-0.02 0.14 0 -0.1 0 0 l0 0 z M11.9 20.32 c0.02 0.1 0.02 -0.08 0 0 l0 0 z M11.62 20.38 c0.04 0.08 0.04 -0.1 0 0 l0 0 z M11.42 20.4 c0.02 0.1 0.02 -0.1 0 0 l0 0 z M16.6 20.62 c0.02 0 -0.02 -0.02 0 0 l0 0 z M11.56 20.64 c0.02 0.02 -0.02 -0.02 0 0 l0 0 z M16.54 20.74 c0 -0.02 0.02 -0.04 0.04 -0.02 c-0.02 -0.04 -0.02 -0.06 -0.06 -0.06 c0 0.04 0 0.08 0.02 0.08 z M11.62 20.72 c-0.02 0.12 0.12 0 0 0 l0 0 z M11.48 20.86 c0.02 0 0.04 0.02 0.06 0.02 c-0.02 -0.04 0 -0.08 -0.06 -0.08 l0 0.06 z M16.38 20.9 c0.06 0.02 0.04 -0.04 0.08 -0.06 l-0.08 0 l0 0.06 z M16.36 21.1 c0.02 -0.06 0.06 -0.1 0.06 -0.18 l-0.06 0 c0.02 0.1 -0.12 0.14 0 0.18 z M11.62 21.02 c0.02 0.02 0 0 0 0 l0 0 z M11.22 21.32 l0 -0.08 c-0.08 -0.04 -0.08 0.1 0 0.08 c0 0.04 -0.04 0.04 -0.02 0.12 c0.04 -0.02 0.04 0.02 0.1 0.02 c-0.06 -0.14 0.06 -0.26 -0.04 -0.38 c-0.06 0.06 0.02 0.16 -0.04 0.24 z M16.240000000000002 21.16 c0.02 0.02 -0.02 0 0 0 l0 0 z M11.46 21.28 c0.08 0.02 0.1 -0.1 0.02 -0.12 c0.02 0.06 -0.04 0.06 -0.02 0.12 z M16.18 21.32 c0.08 0.02 0.08 -0.12 0 -0.08 l0 0.08 z M16.04 21.52 c0.08 0.04 0.08 -0.16 0 -0.12 l0 0.12 z M11.3 21.64 c0 -0.06 -0.02 -0.1 -0.06 -0.12 c0.02 0.06 -0.02 0.16 0.06 0.12 z M11.54 21.68 c-0.02 -0.08 -0.04 -0.1 -0.1 -0.1 c0 0.04 0.02 0.1 0.1 0.1 z M11.22 21.84 c-0.04 -0.04 0 -0.26 -0.04 -0.22 c0.02 0.06 -0.06 0.22 0.04 0.22 z M11.78 21.68 c0 0 -0.02 -0.02 0 0 l0 0 z M16.4 21.76 c0.02 -0.04 0 -0.08 -0.04 -0.08 c0 0.04 -0.02 0.12 0.04 0.08 z M15.9 21.74 c0.02 0.02 -0.02 0 0 0 l0 0 z M11.3 21.98 c-0.04 -0.08 0.02 -0.12 -0.06 -0.18 c0.02 0.1 -0.06 0.16 0.06 0.18 z M11.78 21.82 c-0.04 0.14 0.1 0 0 0 l0 0 z M16.240000000000002 22.1 c-0.02 -0.08 0.14 -0.18 0 -0.18 c0 0.04 -0.06 0.14 0 0.18 z M15.86 22.1 c0 -0.04 0.02 -0.06 0.04 -0.1 c-0.06 -0.02 -0.1 0.1 -0.04 0.1 z M11.22 22.22 c0 0.18 0.06 -0.08 0 0 l0 0 z M15.9 22.2 c-0.02 0.14 0.1 0 0 0 l0 0 z M11.5 22.36 c0.02 0.02 0 0 0 0 l0 0 z M11.24 22.44 c0.02 0.02 0 -0.02 0 0 l0 0 z M11.54 22.54 c0 -0.04 -0.06 -0.04 -0.06 0 c0.04 0 0.04 0.02 0.06 0 z M15.54 22.72 c0 -0.08 0.12 -0.06 0.1 -0.16 c-0.08 0 -0.2 0.12 -0.1 0.16 z M15.4 22.9 c0.06 -0.02 0.14 -0.16 0.06 -0.18 c0.02 0.1 -0.08 0.06 -0.06 0.18 z M11.62 23.2 c0.02 0.02 0 0 0 0 l0 0 z M11.66 23.32 c0 0.02 -0.02 0 0 0 l0 0 z M14.22 10.78 l0 0 c0.02 0 -0.02 -0.02 0 0 z M13.5 12.68 c0.04 0.02 0.1 0.04 0.04 0.08 c-0.02 0 -0.04 -0.04 -0.04 -0.08 z M12.78 14.379999999999999 c0.06 -0.1 0.04 0.08 0 0 l0 0 z M12.620000000000001 15.24 l0 0 c0 0.02 -0.02 -0.02 0 0 z M12.1 15.8 c0.04 -0.1 0.04 0.08 0 0 l0 0 z M12.58 16.68 c0.04 0 0.06 0 0.08 0.02 c0 0.04 -0.06 0.02 -0.08 0 l0 -0.02 z M12.5 17.259999999999998 c0.06 0 0 0.08 0 0.1 c-0.06 -0.02 -0.02 -0.1 0 -0.1 z M11.56 17.98 c0.02 -0.1 0.02 0.08 0 0 l0 0 z M11.54 18.12 l0 0 c0 0.02 -0.02 -0.02 0 0 z M11.48 18.48 l0 0 c0.02 0.02 0 -0.02 0 0 z M17.62 18.6 c0.06 -0.1 0.04 0.08 0 0 l0 0 z M11.44 18.74 l0 0 c-0.02 0.14 0 -0.1 0 0 z M11.42 18.92 c0 -0.02 -0.02 -0.04 0 -0.04 c0.1 -0.02 -0.12 0.16 0 0.04 z M17.66 18.94 c0.02 -0.1 0.02 0.08 0 0 l0 0 z M17.62 18.98 c0.14 0.1 0.02 0.3 -0.08 0.38 c-0.02 -0.18 0.14 -0.22 0.08 -0.38 z M11.38 19.16 l0 0 c0.02 0 0 -0.02 0 0 z M11.36 19.32 c0.08 0.04 -0.02 0.1 0 0.16 c-0.04 0 -0.02 -0.14 0 -0.16 z M17.48 19.42 c0.02 0.16 -0.06 0.4 -0.06 0.5 c-0.04 0 -0.04 -0.02 -0.08 -0.02 c0 0.2 -0.14 0.26 -0.2 0.42 c-0.02 -0.02 -0.06 -0.06 -0.06 -0.12 c0.1 0.02 0.04 -0.14 0.16 -0.12 c0 -0.12 0.02 -0.22 0.12 -0.26 c-0.04 -0.12 0.08 -0.26 0.12 -0.4 z M11.42 19.52 l0 0 c0.02 -0.02 -0.02 -0.04 0 0 z M11.42 19.52 l0 0 c-0.04 0 0 0.02 0 0 z M11.32 19.68 c0.02 -0.1 0.02 0.1 0 0 l0 0 z M11.3 20.08 c0.04 0 0.04 0.14 -0.04 0.1 c0 -0.04 0.02 -0.06 0.04 -0.1 z M11.26 20.26 l0.08 0 c-0.02 0.06 -0.02 0.04 0 0.12 c-0.08 -0.02 -0.1 -0.06 -0.08 -0.12 z M17.1 20.42 c-0.02 0.18 -0.14 0.26 -0.2 0.42 c-0.14 -0.12 0.1 -0.32 0.12 -0.46 c0.04 0 0.04 0.04 0.08 0.04 z M17.1 20.42 c0 -0.02 0 -0.06 0.04 -0.04 l0 0.04 l-0.04 0 z M11.24 20.42 c0.04 -0.1 0.04 0.1 0 0 l0 0 z M16.82 20.56 l0 0 c-0.02 0.14 0 -0.1 0 0 z M11.26 20.62 c0.04 0 0.02 0.06 0.04 0.1 c-0.06 -0.02 -0.06 -0.08 -0.04 -0.1 z M11.24 20.84 l0 0 c0.02 0 0 -0.02 0 0 z M16.54 21.04 c0.08 0.04 0 0.14 -0.06 0.1 c0 -0.04 0.06 -0.04 0.06 -0.1 z M16.16 21.7 l0 0 c0.02 0 0 -0.02 0 0 z" fill="#FFFFFF"></path></g></svg>